<mxfile host="app.diagrams.net" agent="Mozilla/5.0 (Windows NT 10.0; Win64; x64) AppleWebKit/537.36 (KHTML, like Gecko) Chrome/140.0.0.0 Safari/537.36" version="28.2.0">
  <diagram name="Page-1" id="aaaa8250-4180-3840-79b5-4cada1eebb92">
    <mxGraphModel dx="1042" dy="614" grid="0" gridSize="10" guides="1" tooltips="1" connect="1" arrows="1" fold="1" page="1" pageScale="1" pageWidth="850" pageHeight="1100" background="none" math="0" shadow="0">
      <root>
        <mxCell id="0" />
        <mxCell id="1" parent="0" />
        <mxCell id="0PEOZsDTC55XXhyj8gNq-17" value="" style="html=1;whiteSpace=wrap;strokeColor=none;fillColor=#0079D6;labelPosition=center;verticalLabelPosition=middle;verticalAlign=top;align=center;fontSize=12;outlineConnect=0;spacingTop=-6;fontColor=#FFFFFF;sketch=0;shape=mxgraph.sitemap.cloud;" vertex="1" parent="1">
          <mxGeometry x="136" y="150" width="645" height="429" as="geometry" />
        </mxCell>
        <mxCell id="0PEOZsDTC55XXhyj8gNq-1" value="D - EBS" style="outlineConnect=0;dashed=0;verticalLabelPosition=bottom;verticalAlign=top;align=center;html=1;shape=mxgraph.aws3.volume;fillColor=#E05243;gradientColor=none;" vertex="1" parent="1">
          <mxGeometry x="550" y="390.01" width="37.5" height="47.99" as="geometry" />
        </mxCell>
        <mxCell id="0PEOZsDTC55XXhyj8gNq-6" value="" style="edgeStyle=none;curved=1;rounded=0;orthogonalLoop=1;jettySize=auto;html=1;fontSize=12;startSize=8;endSize=8;dashed=1;flowAnimation=1;" edge="1" parent="1" source="0PEOZsDTC55XXhyj8gNq-3" target="0PEOZsDTC55XXhyj8gNq-1">
          <mxGeometry relative="1" as="geometry" />
        </mxCell>
        <mxCell id="0PEOZsDTC55XXhyj8gNq-3" value="" style="verticalLabelPosition=bottom;aspect=fixed;html=1;shape=mxgraph.salesforce.web;fillColorStyles=fillColor2,fillColor3,fillColor4;fillColor2=#032d60;fillColor3=#0d9dda;fillColor4=#ffffff;fillColor=none;strokeColor=none;" vertex="1" parent="1">
          <mxGeometry x="830" y="388.81" width="60" height="47.400000000000006" as="geometry" />
        </mxCell>
        <mxCell id="0PEOZsDTC55XXhyj8gNq-5" value="" style="edgeStyle=none;curved=1;rounded=0;orthogonalLoop=1;jettySize=auto;html=1;fontSize=12;startSize=8;endSize=8;flowAnimation=1;" edge="1" parent="1" source="0PEOZsDTC55XXhyj8gNq-4" target="0PEOZsDTC55XXhyj8gNq-3">
          <mxGeometry relative="1" as="geometry" />
        </mxCell>
        <mxCell id="0PEOZsDTC55XXhyj8gNq-4" value="" style="image;aspect=fixed;perimeter=ellipsePerimeter;html=1;align=center;shadow=0;dashed=0;spacingTop=3;image=img/lib/active_directory/user.svg;" vertex="1" parent="1">
          <mxGeometry x="940" y="386.21" width="18.5" height="50" as="geometry" />
        </mxCell>
        <mxCell id="0PEOZsDTC55XXhyj8gNq-7" value="" style="shape=image;verticalLabelPosition=bottom;labelBackgroundColor=default;verticalAlign=top;aspect=fixed;imageAspect=0;image=data:image/png,iVBORw0KGgoAAAANSUhEUgAAAeIAAABsCAYAAAC2JLG/AAAAAXNSR0IArs4c6QAAAARnQU1BAACxjwv8YQUAAAAJcEhZcwAAEnQAABJ0Ad5mH3gAAGa/SURBVHhe7b15oF1Veff/WWuPZ7jn3HlIcjOHJCTMgxgRwYCIIIpYEO2rlEqrLRZbfK2vtLXoCz+k2MpbfKXV1yIWLVQcEEREBBEjIDMJZM5N7k3uPJz57Gmt3x/7ZLokIcwK+wMbzt1rr7P3Xnuf/d3PWs/zLNHROVOTkJCQkJCQ8Logp69ISEhISEhIeO1IhDghISEhIeF1JBHihISEhISE15FEiBMSEhISEl5HEiFOSEhISEh4HUmEOCEhISEh4XUkEeKEhISEhITXkTesEEsEWcedvjohISEhIeH3CiOTyf3j9JV/yAigo6WNC//H/+CiC/8E2zTY2r+NIAinb5qQkJCQkPC6I95ImbWkFJx6+hn8xV/9Ne3tndi2QSQVG9c+zb9c9WWeePJptBbTqyUkJCQkJLxu/EELsUDgOA6zemdx5DFHcf6FH6Ols4up4VGeefxJBrZu46i3HEPv7Fm0tTXzzFPPcNt/3sq6desZGt5BECZWckJCQkLC68sfpBAbUtLT2c3RxxzPoUcdxaFHHc6M2TPYvH4tT/32IX57z708/dSTWIaJ46Q44e0n8ZaT38lhb30buWyevrXrWP3Uozzz5KM8+dQTTBVL/ME1QkJCQkLCG4I/GCEWQHMux/JlyzjznPczd+FCWts7sFNpnnziCX5y2208+8TjTGwbQNeqWKZJoCJqfh1MF5nJMnP+fE5eeSpnvOt0emfNpFIqUhgfY92za7j1h99n05Y+/GQsOSEhISHhNeT3SoiFEEgpAYFlmbi2TXuumcOPOJyV7z2bQ488HNuxqPkepXKJVQ88wPe/91+sefQJsqaDqtdJWya5dIrOjk7a2toYHhtjc/82gkgRRhHaNLCzWY49/gT+6EPns/SwZdgpF2GaVGo1fnPPL/nlXXexedtWal6dIAgIoxCtfm+aKSEhISHhDcQrLsSGIck1t+C4LjpShGFEFIWEYQAahIi7lk1pYkiJZRiYSLKpNHPmzqVn9mxM12HBgvkcd/Sx5JubiSRM1SsMDg+yef06HvnNb/nNAw8wNjiEEUQYWmGbJh1NzaTcFI5jUq7XKJZLZFJpWvMt+JU65UKRKb/GVOQRAQjBIUuWcMppp3LY0cfQM3sB7Z2dpByXwKuzfs1zrFmzmg39m6lUKkyMjjA5PoFfr1OplPE8jzAMG/b6zmYUCDRCSmzbxrYs6p6H7/t7N1RCQkJCQsIrLcSGYdLeMxvHtBBBHUcYECmU1qDj3Ug0TqTISnClTd5xyTtpZnX0sPLss+k6fDlBRxMhGjPSrFu/jkeeeJTfPf4wfZs3MdC3Fa9UwVARpha0ZprobGslnU4jEASBj7BNfFMwVSsztH0HltK0ZLI40sI2HZTWjBenGC9NogyJ4dpk8m0sWrCMJUuWcvRRR3HkUUfT0tJCZAg8W1IPA4oTE4yPjBLU61RLZcLAxw8CojAiCkOkFJiGie2Y2Bak0yks22Zb31a++1+3sGXLtulNlpCQkJDwJucVE+JsPs+sRctZ/8wGjGoZN6yTEwaWkBiGEXc5C43UmoyKyBsmadshYzm0ZJpozTXTs3QpS955MqX2NPf+6j4euvdX9A30U66XCOoVojAg9COaUmk6WlqZ0dlNPpNmcmKCmu9hpV06errRUmBlU9RDn1q5zKb1axkdHMTAIGPYtDhZunp6sNMO/TsGGJ0YJwwUBg6GYZJuypJraea4t72Vk05dyTFveytCmkRRhAakNGMjWMShUEIILNMim8mQShmYBoDeWUwYBAzuGOTyv/sHfv6L+9GNl5KEhISEhISXLcS2bdPWNQvDdOjfsB4n1DimjQgicgY4Agwz7oZGKISGFJKMZeJYNqZhkHZTZDJpRutV1o0Nsml8CKU0tpAorXFTNmlp4Fg2ze0d5FuaAaiUyhgyFvpMPkeurQ07k0YYks50GsvzyeSylGpl1m1az+Zt29gxNExQ92lJZZnbNYOjFh9KGsnGDesZKUywrTBGWSpqkY+pJTkrRWeui7ee8DZOOOltzFuyiKaWVqxsmsg2EJZBKpXGdV0sy8Q0TBAasWeragCFikK+/e3v8H9v+AYD2wdRSu2xUUJCQkLCm5GXJcTZfDMtrZ2Up8oUR4ZJoTCVRkUgkbhSY5sCyzSxLbvRO61RkY6FSWvCMMD3fCq1Kp4I8dAIO96+KZulKZvFNg1ybhqlFbUgBNNAC4Hp2Ngpl/aWFjryrVjaQIaKqaERZGGSTBRhuzYz588h09nKVOSxbniQTUPDFEbHqIxOYAYRM9o7WLxgPrmmJnwVUqwWGegfoDg+SVCt43khQloI06C1s4PFSxaz9LDl9B6ygMOOPZru+fORjhM3imGACkEYICSx1GokApQi9Ov89rcP883/uImf33MvUSLGCQkJCW9qXpIQCyFomzkDJVNUhsfQUxOYKIyG0EpE/I9QGIbENE2kloRBiB/4lKOAUDSGjQVEYYghDZryTTS35GluaUErhSkEURRRq1YQCKRp4KRdTMfFdhycTIrm9jaywsIfmcLbMYZRrJMKAnI6wlUhhtYYroPZnCUzu4vMwrnotnY2b+ujr38blVqVsckxqqUSsuLR5qbpaGqmq7mZzvZ2pDSYLE2yYdNmxsfHKBfLpNMZbNehuaOdOYsWMHPBApYfcwzLjzqSllmzwJRgmCANdPzqESf1VoBWKKUYGR3h2zfdzP/9+r9Tq3vTmzghISEh4U3CixZiIQQds2aSSeXpX7sFr1wiY2kMNDuTR2oh0Gi0jgiikEgpojC2gCOlCLXCsGxSqRTNzc10dXeTzmSYKhfx/Dqh7+N7dYRSpFIpAJpbW5GmJJfLIyT09HRDGNG/Zj310SncWkg+kvEiDZoMSd60MKMIHUU4uSx1RxK5DtmeGRx6ygrkzFbWjmxn+9gI6JCxgR1s79/O4MgglVIJS8EhPbM5onMWyxYsQhmS0clxnnnuWcYKk2wfG8JNpXBsm3xTM12dXcyc1ctb3raCxW85FnfBPMJ6CTOTbXhWy10pNrXW1L06N974Ha699jrK5fIerZyQkJCQ8GbhRQmxZVu0z5oJQjKyZjMy0ggdYcqGY1LDgUkAodZUgiqBVkgpMAwb27ZwUinSmSZM0wRAKUW9XieIQkzTiLcVEsd1yKRdUqk0Qgpy2SakUuTTWUTNZ7R/gOpkETtQWEFIWklyGDRpQUqANmD50kNoczL0rV6LIQ1kxiWdToNhYbY148zooHXhbFLdbVR0SDXymQgqlHVAoVKhODHJ5NYdhDtGcZXAdVN0z+yhe0YPUkIUBkyNj1MplyhMFqnV6ggglW2ifUYPh51wLEeeeTpNXV0gJZFSsaPXznzXGmr1Gt/77n/xlX+5nrGx8b0bPCEhISHhDc9BC7GTStE+dzZesUZxywC2Umih4v5WtdsaFkIQhmE81qrqtLS3YUgDIYxYpKXADxWRjsVbNpytbMvCMgxc2yLluLiOQ3NLHsM0CGoewo8IiyW8iQJuNcAOIqwojls2tcZFkBEGjtZIodhcHubEd57MCYsO4+lfPIATaZQA2zBxTIe2XDPSsHDyTdjtedxZXchZrajWDDqfxrdNKl4d3/PQvkdxssDU2CTFsTH8ag2/UsUBXGGSbUrjOCmEKfHDCK9WZ2RokEgrDj3mKN56zgfoWDSfyKthpLLEPfIStAQUURTykx//hC9e9U8MDOyY1vIJCQkJCW9kDmoaRNt2mLd0CYOjBbzhCRwt0DoAEQAKoUXcHS3A83183yeVTjN/7hwk4Nc8RKRRkQKtkLaN4diYjoWTckll0riZDG4+S7YlTy7bhIukPjyBPzSBPziONzyBmihh10OsSGOhsVQcDuVaFlnHxbEkhgHakowLn9mHHsKRS5YytKkPJ1I4QmIaEjtlAZCyTDJIUl6IWQsgCDAqPnY1JG+7dLe3097ZTltXF92zZjBnwXwWLF3C/GVLmHvoUpp7Z0Auy1itRv/ICEOjE4yNj9OUa6KrpxuvUGL7xk1UhgeZ0Z4n1dkJhoMQjWmghYDGy8ghi5fSO7ObR373GOVyZe8LkJCQkJDwhuUFhdgwDA5fthS/UmXH1u2kpcAkBB0gdITQGkHsHRzJuKs1k0ozp3c2SivK5TKWa2PaNtIyMV0H6TpIy8IQkrTtkjYdUpYFQUhpaoryyDjV4XEoVDArPk3CwgpCdBhgmwaG0Bg6doMKlIeddsnm8phSYwkBho3O52iZ08ux734PI088jVupYUiFkbZpmdFJWPewNMhIkxYGjjTIpNNkpEVKGtgYaDRKazK5LOlMllxrC+nmHE5rnlR7K7nuLnoWLOCQ5Yex9LDDaevuIdCap59bw0RhkkUL51EpTtG/bROjQ/3MndGD3dqFkBKEQKGJO/Jjh7UFixaRy6Z59NHHqdXr0y9FQkJCQsIbkAMKsWlZvO2tb2dxWydP/OZBMraAoIZBhInAFBIDCUJS8ar4oU82nWPBnLmYSApeFVI22jIh5RDZBlY2he26GArMUKNLNcKJIsFYAT1VwawF2J7CicBSYGhBGPkgQrShCYhQUYAjJISKmhFR1or5C5fQnnbJSAMhUhj5Lmhp453vOwO1YwQxMkHZKzIeVWnu6oSJErYXIU0D27VxUi6GKbFsO35JSKWwbAfbcUEamK6D4Vhg2eBYyFSKlNtExs1guxnsdIa2nhl0z5mNk03x3Npn6RvYSltPO27WYWBgC5s3bqKzpZ2mtlakaaGEBi0QSiKkiSENli6cjxXUeeSJpwiiaPolSUhISEh4g3FAIV68eCnvX3kW75h/CDlgYNtWdBBgaDCRCCEQUuJFIfValXw6y/w58/HDEF9oQlOiTBNtmmjLIDJMlIZwsoxRqEHVx/QjZBQn7zAQmBosLZCAqWmEQsXjvkpqEKCVwrYspCHBNvCRWHaKk447mtL4FIFhUXUdaG3ineeeiS6WGF63jmFvikxbM01uE/54CVMaGCkXJUGhsS0baZpgWVjZNNK2MF0bXAfDdRC2hXBspGmAYWFJE1OaCGEgTRMtJbbr0tKax7JMNmxYx9DIIDNndpNrytC/aRPe2BSdbe00dbcjG7HGQsdtSalG+dHHyIwMM7OnmwefXZtMz5iQkJDwBqcxWLlvHMfBCjTz061cePr7+OsPX0S7dEhHAiPWREI0QeAzs72LE5Yfg1SCSApkLou2HLAcMB0iTMxUGi9QyHqEW9c4ARhq74PYlf1Ra3RDhrSACB1PGgFI00CkbOYuPYQgCnEsm2KpTMnzmLNsCemuNsysTXN7EzoKaFswB6u3k1LWwcw0YSKpGgo/a2Pk0igp8D2PyAsJax6R72EqjaE0IlSYmjhTlhYIaWIKE0eYWKaFaRoYpoFpGAghMAyDru5ZvO3kd/L+D56H4aZ4cs2zaNNi3px5DK5Zzarb/pvqxk0QhIgwgkBBscrwbbfT/93/pvbEM3zg2OOxrHgsOyEhISHhjcsBLeJUKsPbjzieZW6OTKCZ3dXDyW9bwdjkJMOTY0xWS5QrFdpyzSxbtJSx8XGcbJbItqiqCMN1CIXA15papGju6KBSrWFVA0xPoVGxsEoRW9eNcV+JQGiQuiHSWsfpMRtiHCrFRLnIrIXzOP7YYxgcGiXUsG3zeo4/4Xh2TExSDT0mimMsPfxQmru6ee6JJ9leGKc6VWFWvhW/yaL30MXYpk0wWiCrG8Jq2xiOhUzZGKkU2Ca4Dtg2mHZ8LKYEAUIaaGGgdUSkQpQKkdJEqXgCjJa2dpqa8vT1bWFwaISOljZa7TQD/dvp27KJ2d09OEJSXf0sq//1Blj9HNbUBDXHxJ85k5t+eV+SlzohISHhDc4BhdgwDE4+/u3MdVJkFbhKkEk5zFu8iDWbNzBcnKSnu4dlcxYShRGBKSDtEhrEsxZpSbqpBWWYFOseShjYrkvkB2gdEqIRUiBl3BUtEEixuzva0Bop4s9aREhicQ60oiYiJiol5nbPZObMXkrVGqWpUfLtLeQ6O1j99JP0rXuOLWufo6Mpy8TQMOu3bcV1XTo62yBrs3D2PCY29kOhStqwkUIiTQNtGgjHQto20o7HhDEMsCwwBEiJEBKtIQp9giCkUqlgGBKNQEoD03JwHJd8Uw4pBBvWb2BsdALbzJLJNTOwZTPbHvsd+ZFhtv/8Zzhjw1jFAn7gk1qyiAcnp7jviSenX5KEhISEhDcYBxTiIPBZcfRx5BS0GDaWsFCBT11H/G7dGqqEXHzxx8kaDpOVEr5tEDomoRRoYWCmctQCRa65lWKlSrFaI9vcjLQN6lFIhEYIjaFBatWI5hENISZe3xBiIRSNIWK0FPhC4YceY/070Apm9vbiWoIwCtm8rZ+wUmJuZzthrcaWZ55l2+YtlCo1ci05hsaH2dq3mbceegSjT69D1D1SKQfZyAomLQNsE2lbSMcGxwbTQNgmmEZDjA2EaVCrVZmcLGBZJlLKuL5pxpaxVpimSXO+mSAMeGr1sxSqilznDESkGF39NM0TY+SnpkiFNVAKz3Rpf+tbuOKWWxktJdm2EhISEt7oHFCI801NHDd3IR1tLdihIqsUlhIUozq/fuZRRioF/u6KfyTd1MSazRsp1GsE0qAaKmqRxHQzTI4XqFfqHLr0UMYmJhktlci291BXBqoeIsMIUyiQQSy4WseCq+MZjGJJ1kC0K2kIBqgoJKjWyWeybO3bzFD/NgYHtjK6fRCvXCWbsZk9o4u3LDuCJbPm0JHLkU+56MBjdMcgYbHEvNZ2Ctu24YoIHdSxHQNDakwpMEwbw7IRjoPMpNApC+0aiFxT4xhMarUaAzt20NycR0qDKFI4to1lmpi2gVYREh1bx+kUU6Uy6/u307XoCAKZZcfap+m1bNqVSRqTUAiiljybRI07Vj9Hqe7vcTUSEhISEt6IHNBZy7Vd3nL0MYwVp6jpYNd6GQ/lokQcOyxTDmY6jeW4KA1Ik2w2x9TQCPWJAkGpwqbn1jJv7hwyuSb6h4bJtnaQam9HuS6hEAgdjwvvz014z2kFpdZYQmIKycDwICGacq1EqEKK5RI7dgzw3NPPsGnNs/z67p9z+/dvYVvfZtrbmlmyeBFnvucM3nXC2xndtJVQeXhRHU/X8aI6URigvDqq5hFV6oSVGqrmEXp+3KXu+2gVUZuYZGxoiFwmi4FAhxEp20YAlmVhWxa2ZWJYJtI0aG5pY+acuVjZNOsHBtk2VqbsKSJtIIVJte6D69C8oJe3Lj+SQ7p79jz9hISEhIQ3KAcU4kq1QkdHG6mUy+jI6N6FDfNUIHBdl3Q6hW07mIZFNtNE6HlQreGqCFUpUytMMTq4ne72FnIZh4EdWyFt4nY0o1wHpQxQ+z4c0XDa2mkRax1PsyiFRBjxnMCRANtN0dTSQveMHhbMnkt7JkfWdQjDgMefepybbvku37jpRr53660EY0VqwxOoMMLXEV4UUgt8QhUSBgFhzSOs1YgqNVSlhqj5qJqPX65QLhSZGB9HByGWkHiVKq5hYgmDlOUipRHHHhvxIqUklU7R3dONlJLRkVGiKELKRtiSEFiOjbINMq0tqO3jBJNJdq2EhISENwP7Vr4G1VqVIAxpymYYGRnZtblhmpiWRRSFaKVwnNgxKYpCHMels7OTaqWCUCEOEbby0ZUitZEh6iPDLJrZjWNETBYmiQyJ29JC3bLxhEQjUVrt9hbWGrRGqTjL1c71UghM08QQIs6OZbmoQBF6AUHVp1KpMDAyxJaBbUwUi0yWS0xUqoxPFdGlGmN9A3jFEoHn4wUe9cAnCALCIEKFEdqro6seolzHqAaoYhXDj7vDR0ZGKJQLaBUSVCpYWmMohQUIBUQROgwQUhIpTRRF+H6AaZhorQmCIM7apRRhGBJFETqMoB5gV3xcJSh6SWathISEhDcDBxTiUClGJ8ZIZzMgBFpptNodzxsGAZ7vY5oWlmU14mgllmUhDYESIcgIUylcpTArNbyhUUo7trNk9ixSUlAqFgkdG3tWF0HK2V/P9F5orRFCYEpJxnRoMhxyhs2M1jZ6WzuY2dpKd1sbXW3tdLW0MaOljTltXSxo7+SQti5mN7dDFBGqeIpEHcVzBAdhQOj76CACL4CqB5U6lCroUo36VImxwR0UpqZIp1wkGkOFWFohoxCCEIIIQrXrBWJXX7vWgIwnh5CSlJtCyritDCkJVITQYGqBUJqxSmIRvzm4grvXrWXzuju4cnpRwsFx1R1sXreWzXdeMb3kTcJHuemhtWxet5a7r5pelvCHwAGFGGBgaBDXdQiigEhHKB0LsUQQhRG+72HYJrZtxcJiWrGzkmkSSk0Um4jYUUQmULjlGsWB7ZSGhpnd1k7Kdhkrl5lyTMzOVnBtYhcn4pmdaMzytMtTa3fWD0saZA2LJsOmyXBwfI3lRdiewvIVZhDi+BHN2mCmmWZ+Ks/cRky0pwLqKkT5EfgR+CGRFxIEPioIUIGPqteJajUqUwWCeo3C5ASlUoFsxqVWq0AQYEY7E39EaN+HwEOEfhzzHB/srsMWGlzTojmXR5oGkdCkMmmEaaBNE1wbM2UTRgGF4PVw1FrGBX97A7ff/wjProt/2JvXreXZh+7h7luv47MfXkHv9CoJLxMHJ9NYphf93tHLiZ+8gpt+cA8PPb37/ti87ikeuvc2brrmMi44Ynqd1wBndxu+XvSuuJgrb7iZu6f9djY//QD333kz3/ziJazcZ9t8nts3bWH7wFPccvH0soPFwWlqtMHr1wQHyTIu+NvruOXOB/Zop6d46M6bufaiZdM3fj5HnM+VN92xx/33FE/cezB1X+p+z+baH9zD/fceePnmp6fXe3G8sBCPjRAagqIKqZtxeI4jDNJYWNKgWCohEI0sUAKiCBeJEWiEEvFkEEKhhAIRYmofqx4wsWU7ulSjo7kVoTTVcgVPmqjmVgLXJRQaRIQWNZSoxd/R6JqWOg5tspHYwsBQxFZoqFB+SFCvo/0A5QWEqjH+G/qEQYCOfKKwihdVCAkJoxCUwMBENGaQCgyNtiXaUEQyomQFjIkaQ/UC2JJKcQo7iMgGmkw9xPFDhO8RhVUiVSGKquiwho7qEAagIxQaGSk6rTQ9be24TRmCKMRNpTBNC1tYCMOGlEPJ96m/1ok8Tv08tz9+B9d+6nSOWdhBfqc4ZBzysxayfMXZXHrNzdz+zdOn13x9OeIUzjkreUF4ten96HXcv+YBbrn8o6w8fiG9rXu8QGRy9C4+mpUfvoRrf3APVx49vfYbmCM+yvX3PsVDt36eC89awfJpvx2ntZdFR6zgjIsu46Y7H+GmD0+rf+5Ceh2AHF1LppW9wVh+0XXcv+YOrv3U2Zx4RO8e7ZSj94gVXPDFO3ji1ktYPr1ig973Xcf9P7iaC9+5bI/7L0fn4hVc8MXbeOLGi/f5HHh5+13OYUcvZNHiAy8L97XjF8ELC/HIENoyEGmHitQoQ2IKA1eYiEhRKpcBjWEYCKUQkYYgQoYgIoHWkhCIZJyUQxBhhiFpJRkd2I4roKslj67WqZZrhFYau7kF5diEQqEJ4wkfGhaxoRpLpDF2GsoCtI6FWqEIVTzOG/gBgVZ4QlEnwkMRERERolQsjoGQCEwMbBwjhWU5SMtEpyxqjmbC8ii1GgwbNez2pniihppPJlCYxSpWxUNUPKRXRwR1VFhDRzVEUEf4Hjr00VFIpCK0UszItbJ0/kIM2yJodIcrpTGFRSRsQifNSKXCazvdw/ncdM3FHNMJhEU2/Ox6Lr/0Ui5pLNd863bufaSfQjjKM3fdPb3y68pnv/R1rv/yX3Lm9IKEV4yVX7yDu686m0X5xv2x6nau+4fd98cl/3A93/vl4/RPQOGxW7n88enf8Mak95Pf4okfXME5i3MAFDau4q5vfWV3u1x6KZf/6y3ctWojIxWg77f8+3enfclt3+Gnj4wysvE+fvrjaWVvJI6+gq9cHt9D3sDjfO/Ln+D8E+cxc9Y8Zp75OW5cNYoHdK64jOu/smJ6bZh7MddedTaLHPAGV3HjZWfFdU/8CF+6bSMFHDpPvYxvfmGaIr7c/ZLDMQFGeey22/nhfpafPjK93otDdHTOPKDp9bYjj+Irn/1f/PZnv+CE+UvoJU1FBfyfH3+XHzx6P1defx1Llx7GHXfexaqHHkGYKfItHaxes5aRsWFU6KHDOoaKMHSIRCOEQ4hJTYUoS7Ls6CMZLxWoTJSR9ZCmlIn061CcwK5XsRUgTEwtMCMQKKQQSEMiZTwDlNSQMg1MBQaQEhq7IWex57IBIsLVkMXANSSWNEkZFl1Gipzh0tTcTCqdIZXPQWuOWluaeneO8axJqrsVR9pE1Tp500WXarRkmrAsF6sphcjaqJSJTtkIy0Ha8Xh3qVqnVPMYnZpi85r1jK/dTvPiI3ng0UfYcOu/8bFDF7NEOtjCwpjby+y3r+CJx1dzzo++P/1SvHp8+jY2f+ZoHIo8eOVZnP/1/ulb/J5yGbevu4RjwlV8adlHuGF68R8EV3P/wPksYiPfm3Uan5le/Hpz8c08+4UV5AFGVnHNn3yE656avtHrzFfuYfv5C2HjLcw8+XPTS18dTr2a+//tfBY5QGENN37+k1z+4wP9bnpZfgSsfupA27xULuaWNZ/nxDxsuGUeJ182vfz3g97PfItrW3/EZz5/O89vhV4+e/s9XHq0AyP3ccnRF/HDPUpP/NoD3PK+Xqg8znWnn8s1fXsUAitveICbzuqFwvOfBS9nv5x0Aw9993R69/G9ryQvaBHvGBuNk1S4NhUdUBURkSFACqJIUa1UMQyJazsIDWEUEQQ+tm01PJyn67xGECGVjyMUjop47nePkPIDutIuLSmblGvjph3sTBoMBz+Kv0WhiVBgxF3IiJ0xVALTkAgde1YLBJEShKFEayP+rDRam2gsEDZKW4CJ0CYIi1AbmHYG28mSzjZjZZuwW1tJtbfT2dJOS2iRLfo0F3xU3xAtnsYsVhGVKlSqUKsjaz5G1UdUa1CuIaoBIlC74qMr9TrCNLEMA/wAAwjCAA/NmAppnTEL7Wm2l15jR63eXDw+WVjNfS9bhJex8tyzX3p38dwVnHHu2Zxz7in76SraTe8nj2ZhZvraF+K1O77p9K44nXPOPZtzTj3QmNQBeBn7hj3qH/S5n8I3/7QhwoVVfOkDr4AIH3FK3AYv6Rx6OfGssznn3LP3M976wrzsawDACq79u4YIexv53qVnvYAIA/S/QiK8sw1O58S508tegF33z0tvv5dD/7UXcf4+xRCgn2vueowCQGcvb9ur7Gz+7K3xHdt/31eeJ8IA937iZ6wOgfwxvGfa2+xL3y+wuIm4v+PV5QWFuFApx97JmQxPPLeGKeWhLEnKsBEIipUyWgpcx0FHKo7BDSOkYaB1HKKzU0bjjmSBigKECjCjEDuMSEWK8c19DPdtZmJkB+PDg4yPjODVfCLDILJsQkOCaxNYBpFlEJqC0BAEEpQpUJaJj0ZZEmWbeKak7pjUHYuqKalZBnXHoubaVF2bmmPhSxPDSuGnU4TdrVS78tS7WwlmdMCsLoLmLDU0Ud2num0Etk9h7SjQWtGkCnWMcr0hxDUo19GVOrpaQ1fqUPXBC5BBFCf8UJpKtUZIPM6tggBTa+r1OjU0oqeD9kOXIkLoL/9hpbbsXXEx1956D89u2sL2gTu46brruP6Gm3loYAubn76H6/fpDHExt6zZwvaBB7h+bjyOc/fv1rL9wZv55nXXcf113+LugS1sfuhm/v5902Tj/Cu45f6neOjyhkjkV/D3A1vYvnNZczOf2GPz1/z49qKXc666jSfWbeGhW2/g+uuu4/ob72B731Pcf91HD0qM9rfvZ++/gUv3+UDdeez3cC27xzF31b/h61z7yel19sGnL+GdswA8Vt/6OW7YxwPw4FjGhdfdwRNrtrD9zm/FbbDzHB66jSs/eqD2A+aezZU/eITNfQ9wyw3Xcf1113HTnVvYvt9rN53G/vd1Db65v7HBA3D+x1m5MP64+uaL+Mwvpm/wYria+wf27az1iVufYvvAFu7/Co1zuIdnd7XBDfz7NQfj3dW7u+133T+N9uuLHZ1esP1fK8LpK3aygtmdAKOsv2fV9MIGV/HMJgCHhccfTLvswX73C+RdXIDR/lfNGuZghHiqUMT3Awxhct+vH+RHv/oF5dAn76YRQjBRKqB1HFschSFhGBKGQTz2qRVaq13TGYJoODxrhI4wVISpIlIK7CCkt6eLs993Jue997187I/O448+cC4fvOAjfPBP/gfnf/xCzv7IecxavIAwZXLU21fwkU9ezB9d8nHO/cs/5YN/+adcdPn/5E8/9xmOfs9K6p1NHHfB+/iTKz/PRVf9PRd/+R/5sy9fwZ9++R+46J/+kT/76v/HknefQj3tUOjOs/wvPsKyKz5F7+Ufp+lvPkzTn76fmR86k4XvPY2Fp5zIIe89g655c0lrg3QtRE5VUFMFvGKBoFAgLBQJi0X8QomwWEFX60TVOkHNIwpDavU6xXKJSAiCMKBWLqI1WK6LlW/ibR/7MLK9BWUaDFZfY4t47Uj8RphfzimffLE/yl4u+NxlXLBiIXkHvIl+NqzbyIaNoxRCcFoXcs4X/4Obzp9ebyd5Zv/1zdz6xbNZ3gGFwY1x/cEiAM6sFXzin7/FtSftUeWIYziux8Hzdq/yKt7upeSxOwr7dTi+XfTyiVvv4PqPHk1nBqiMxnXX9VOIciw69wpuvXt5/DKxH1Z+8Y543z3O7vqNY88vPJ3P/uAerj11eq2ddNJ78cXc8p3GOKbXaB+vn/6vT9/2+XxixcK4p6Syhp9esW974oU5hWvvvY0rz11GZx4oTDuHWUdz4VV3cPcXT5leMWbuxdxy+3VceHwHjgnezvYfKOLlFnLOF7/L3csP1IKncOXd3433n9mj/mARzByL3n0Zt99/NSunVzsAnzj3GDoBKo/z0394qe1y8HT2XMwnbv0uV567kDy77/P+vm9M33Qa8f23s+133fvrNjJS8MDM0bl4Eb3eq38OB8WMfKP3ZYSNe66/uDdubwqM3LZnwd6sHo5/k/kZyw+yx6fB/vYL0NPoLXyVeUEhVkqxaetWeru6eefbTuLhZ57hZ6t+g29bRAgq5QoIsC0LrRRRFBEoRRiFKBGiiHZ5OaM1SuyWZdAYQoOO6Onp4LBDl2ARMrKjn41rn6Nv00Y2rl/Humef47nVq/n1rx9kYHgHhx9+BIsPWczQ9h1sWr+R59at45nnnuWJZ57Gk5qlxxyJlc9QF5rItdhRmuLhtWv4zZonuf/Jx3lyoI8pW3D4We8hs2QBR577XpqOWsrw1BgPrvoVD//ibp781S9Z8+ADbFz1EDseeYrSAw+hhkawlIrjhWsesuwhKx5h1SOo1lHVAKMcIusKoQTaC1BBgFYQqIhSrUZdRfhhgO95+FFI1OQy68SjCdpyqAWziUwY815jIf7G7Tw6ApDjxM/cxi1fOPtF3Mj9XHPzLdz13as4/8R5zD/8JE5eeRonn3w8h558FQ9OAHSw8qLPT6/YIMcx567A7buby9+3hEOPOy2uf9wRnPCXt7PBA5yFvOeSPd5yP38W8xcvYf6PGj+bwiquWbwkXrd4CfNPuIgbd238OhzfTj79VT67Igd49N/xBU5YfHxcd+VJHLrgLC7/WT/usmWNh8w+OPUGrrxoGfnp9U8+nkNP/gJ39XngLOSC/33DfoTE4bBPXcaJuVEe+8alnLCg0T4LzjqIsegVHDu70SnX9xjXTS8+SC648ctcsNgBijx47VnMXLbHOcw9i2tWFYEcyy+6gm/u44Xi0n++jBNbAa+fuz5/EvN3tv8JRzD/fV/grj6H5cs6plfbxcobruDCZbnn1z/uCE74/N30e+AsPJ8rb9jPi8DzeGXa5cXgLr+Ez67IMfLIN7jk5N33+emfnb7lNOb+JR9akYvb/sqTdt/7K0/jqGVLmHnmRVxz5fVcfsv0iq8HvVy5Iu7d8Nb9dm/rc1Hn/oVyD24cHIk/tLS/COfNA+wX6DVjGS6MjHLGuWdz6RfjHoUrP/Vyhzf25gWFGGDb0A5S0uKdx76Vc886h0dXP8264R34WjO4YwilNWk3hSEkSsVzDFdqFUzXQMgIA5CNRCBxZDCg43HeUCtqvsey5YfS3pzDDAJ++8CvWPXgA/zmV7/i4fvv5/EHHuTxBx9i28ZNOIbFoYsPxdKS3z3wW37xk59x1w9/wg9vuY07fnInlUqNUrlMzfNIuS4qDHnsoYf55vVf5+v/8q/805ev5fa77qIcBkzUSwwZIe7cHiIDCCJsL8KtR9glD6tQQw5NwpMbcUbKWKU6+D6hF+egpuxhVwJ0xSOqeOiKj1kNMT1F5AeUJydJmw6EiijUTBVLFCoVCsUCgeeRSqfoWDQPd8kcnCXzCSyBF1SZqtemX4JXmVv46GdvaYhKBydefB0PrXuEu795kHGht3yBj3/2Gzw4veuy7xt85r7G23bPMi6cVryLyuPc8Mef4MZp44/9P76Uf/tNnFo1v/CtnLN38cHzuhxfL9e+/+j4bXrgfi7/xE3TxqjWcOPHP8dPpx/THlz6FyfHL0RrbuGPptfvu4mP/+P9jADMeit/to/3AHDIt8Jj15/L2Vfsb4xsfyyjqTG/SWF8YHrhwTH3Ci48ORbJ/js+zflfXTNtgzVcd96n+WEfQC9n/M8r9n4BnHs15xwfPwj77/kCH79p2hk8dRMf//zdBzivS7j0lPgbV9/8kefV77/pE1x+X3z9et/+8b2GM/bP7nYZGVw9vfBVwWnNwePXc/YHrmq01UFyWsOS3J/vx1P3cd3Xp9+Xrw+9n7yac5YB9PPL/3v93oXG3n++khxwv8CZPXFvS37FJXzzuuv47EXxGPuFf9sY3lj3wIs0XPbNQQnxRKmMaVi4WnPqsuUs7e5i/cbVKBExODxE3fewbRspRDwmLASTkxNIAbZtIvaygkFrQYRGKQiCiFq9TltrK8oLyFkpgmKBlIaslGSlJGUY2FKiIkU+l0MaEqFBRRHZdIZMOkMmk8Fr9FUGYYinI+pmvL8WJ828dDOL3RbaLRdfR9R1RCn0mIjq1KTCNwRdC+dz/NlnceRZZ7Ls1HdxyFvfTmcmT1dnO45pQrVOVKwSVCtUghqhV8MoVXHKNcxCFaNQhlIZXasyNbyDdKSY2NoPXkAwWaI6MkWlUmN8cgK/ViHflGPWrFnk0hmE46CiCL9ap7Rnn+trxS8+x8krL+WGVf14AJkOlr/7Eq69cwvP3v+tFxgH3T/9q/vjbm+DeKxlH3jrVu3TAQPge6OF+IPj0DW98BXg1Tu+/8FhDWea1T+/knv3KtvJKr788P7e8S9j5TIH8Hjsni/s+2H5i1WsnwDIccjbzp5eGtN3N9dcu8/aB83I4E3TVx0cHzuG5SYQruHeq++bXtrgPi65pyHQi4/Z+2XoY8tZxAvUf+BaHtxfE37mFJZn4hepe/fThXzvqg2NYZlFrDh3eumBKYzfPn1Vg92ZrqYvD9340ekbHwT9/PTar+z7HjgQ9/THL2r5Y/jQdS9fLF41Tr2a73wm9vcoPPAdPv6yxtxfBAex3zvvuJ8NEx6FgY1seGoVd912Oz/85eO7hlbI9HLixddw+35imA+WgxLizQMDSMPEVIKsoXBKE8xPu7TnsnhhiB8EWKaJY9joKM4TXS1XKE0WMAwTbUkCI/Z6FpFGqngbrTVhEGKZNmCiQoUOQmb3zKSnrZ3u1nZ6WjvobmunpaWFbCZLKpUmDEIM02TGjBm0t7fT1tZGa2sruVwOAXheHS8KEJZJKKGlo52Fiw9h4aJFLFh0CDNmziLnphFaUws8QBMGPj/+yY+57uoruflfr+PH//Y1fv39/2K4MoXflkc7Bl6liqpWkbUA0w/BC1DVOqJYxa7WMSo1qFaplcewqVN4cg0bf/lrIt+nUq1RKBWp1z1KhSlsw+DkE95GOFXmv//fTUSegpFJxscnqXm7Z7p6Tem7nS+ddxLzz/wc1922ig0T8er8wlP4xNfu4aGDuNl2eaWeezYX/u3VXP/2zv0K3E5Gdvx2+qpXjdfs+C5aRq8J0E//L/b/CO3fOT4/nXOX0ZsBGGFkR3y8z1+mKMXDYjjpfb+mjGy8lwenr3yRuJl9xVe+MBcubtwtQwPctZ8XGQC+vSkWGbOX5RftXn1w9fvZONJohGmcs7w37pGYHKX/eW3XWAolGqP9OK3Tv+HAuOb+fg17ZLqatuTSL2HEcWQj9z4wfeVB0Pc1/mtVEXBYdO51/OrxO/jm357/4p3TXk3mXswt/xx7oHsbb+FTH36hce9XiIPcb/9Nl3Ly4Us49ITTOPnMj/DxSy/lko+e2xgeupQbHo/bt/PUi7lyv34mL8xBCXFf/zaUUmhTUB7fDiMDLJImR/bOQ4eKyckCURiRTWdRWhNGIZZtUZyYpFIuow2JErEQ7+yi3pk4yjQNDNPgqSefwA98Upk0J6xYwUmnnMwpp67ktHefzhnveQ+nvetdHLL4ECYnJ6lUK2TSaU4++WTOO+88zj/vPM4//3w+/OELqNaqPPTbh5gYHqOzrR1hmBy54gT++FOf5Py/+gSf+l//k/M+8EHUZJlf/fRu+vu2sPGZNaSQvOudp/Kxj32Ms8//ICvP/wBv+cB7WPDuk7Hn9jJUrzNVr+L7AfViGVWqoOp1PK+OqtZQpSr4PlqHRH6ZiW0b+N13bqatXCPSIQWvRjWMmCqWmBgb58jly1g4q5dVP7uXzU+sQU3VCEcnGK9WqYavkxDv5KlbuObSj3Dy4fM4/R9uZ0MBwKH31Mv4zjXPfyj3vu/z3HT/U2zu28Mr9brruPJT53POOxsOPwegXtmfJ+Qrw+tyfLu60zymDvQQXbdTCKbRujPlZS9nXBMf776WM14ghGX/VtvBk2t9aWNhbqNHivrUgV8G+mq7nev26IY82PqrJ/b5KkPXTtGbdTrX7qPt4uX0F3y53B+5nndPX9XgZ/zr3+6R8OTSSw/wInEQFEf2jm09aPq54byzuPy2jbFjYucyzvjU1dzd9xT333o1Fx7MsNMudnp3P3+JvbpfAnMv5qb/jn0AvMH7uObCz+2n5+gV5pXab9/tfOns63mwANDBsefuc3zooDgoIR4rTFLEZyqsMLhpPS2hT4dWtAYQjBQYGx4lncpg2zZaK0rVEtl8FkMISqUyNa8ORjzln9AaiNBEaB0RRSFh4PPoE4/y8GOPcM+vf8kT69bwuzVP8/DTT/DQ04/zu6ee5NHHHmPD+vVs3LSRn//859xxxx3cdddd3HnnT/j5PT/jl/fdy7333cv3v38rTz72BGG5yp3//QO+841vcf0/f5X/89Xr+PrX/y/f/rdvcsPV/8L//eI1/Ob2u+lb8xzf/Oev8pW/u4J/+eL/5hv//H/492v+hf/8yvXc8tUbuPVL/8Sj/34zpWc3Ua3WmIg8xrTHZFSnqDwqysMLPEKvRrEwyVhpEr9U5Lmbb0GXJwlkSLVWolStUKrWGZ2cYGxsjHq5zP133U1paJSwUGbk0cepThaZKFaohwfyp39tWf2tSzl52UWNsSmHRad+fK+x0JVfuYdffe1iVi7M4RT7eeyXt/PD7+6RmeuO/VuDrwW/78fHA1N7eHjviwNn9Nm13Dd9/PXl8g36h+JPL9oL9eWwU3xfBA9WXmAoZ+Tx57fX85Yfcd+66RX3xcG0Sz8P3rH390+9bj/pfm689DQOPfkjfOm7jV4uM8eiFedz5Z1reeiGj+7nHF5l5n6Ub/7nZazsceJEMX900f7D43b2GpnuAWN6T9yZa9zzGJ5euJMXs9+D4hvct6bhrd25YHrhQXNQQlyu1RitV6gGdYa3bqNJQZNStAYKNTVFJfBo7e6ktbUVJTSVeoVUUxYpLCJfMT42QSghNARail35oiVgmyZSCESk2Lp1K8+uX8dz69ayfccOdowOMzA+wo7JUSKtaO1oZ96C+WTcFJu3bGbj5k0MjwzTv2Ur69asoX/rVhzXZcmSxRxyyCEUJqeYGB2jWJgi9APKhRLPrX6WZ598igUL5vP+957JSUcdixwv8+B/386Dt97OEz/9JY/85B62/O4pmKjQKjMsW3oYsxYupHPpIrqPXsqCdxxPbnY3dQL80MML6xRVjfGgREtrjvV3/oLq6k1M1cuEzSmK1Srlap3Jeh0j3Yw0LEb6BxjbPoSlIGuYbP7dw6jCBAMTI1T9F3iwvObcxyU/ejweO94z6H3uFXz23NiiLKy6ihMOP4mzP3opl3z2K9y48yH0Qg/JV5Pfi+NzcA9kte4KzZjGrhyndUZu29u62tdy+ddfgtX+AvymvzEH+dyj+Nt9hmcdmPpO8XGbOXFa2V7MTe0eHtiXYJmpA4rFJ3r32YK79++P8l/7aLO9ly9ww4F6LvbgRxsaL28vsV1eF/pWccNnG71cl93EgwNe3Mt11uefnxZyn3yOk2c1UkNOW150Jq+5H+Wb//l5zpjr4A3ex5c+8JEDi+E9Y3GvUaaDQw7Q3itmNO6D0Y377kF4sft9DTk4Ia5WGRwbQxXrjA5OYYg0li/I6wCTOs/0byLV1cZRbzmWfEszgYpw0i6pTBYaOafHCwVCWxKZYtd0f4YCGWlcaeIaNo40md3Vw0Uf+gh//zf/k89e+jf8zV//NZf+9af51F99ir++7G/41Kc+xdmnv5u5vb3M6O3h03/9af7mry7luMOOJJ9t4kPnnc+FH/soH/vTP+WiS/6CP/3UX/Anf/kX/NnffJq/+Ye/45N/9SlmzpvDvBVH884/Opu3H3s8y7pmcmTbDE7uWsAx7XNZsfwY3nvuB/nAn/0Zi84+g+FDexhe1sP4IT2Mze1iixGwY2yEwPOolksoqZkUHqIrxyO/fpB1jz6DEGnquRwdy5awbXCEshcg3BxlmSWdziNKZfJ2CkuaGCpgx5O/ozrUx0i9jK/U9Evw+lOoP99y2+mMw0Z++tlv7NOZZKf7/+vC63l832g4ytDJ7A9OL9yDnTGM0/nWGvpDgF56Tz2YB+Urzw+/9dtGm/Xyzkte2D9gOjeua7R49ywOGBz0wVmNl5ER+vcYqruhrxGO0jGLC3avfh4d+X3bSXvu/4W68F8MD373iZfVLq83q2/5AuefcBrXPR6L8fKT/nL6Jq8e08TwoCzSvntZP0L8W9jvjXQ+y2c1POy33D+98KXt9yDZdf95+xxkOigOSoi9wGdsfAxTGnT29KCFgSEMMlrgKM2vH/otazZv4Ni3n8DhRx5OynGoViq0z5yJsCyEAlUPKE6MExAhLBkHMQkdL2i0gGyuiRVvXcHMzm4GN2/lju/eyp03/zc/+e5/84Pv3cqP//MWHrjtTtY9+Dv88QJhzadcLFIsTKGDgGqlwuTUBKMjI/zkBz/ia/9yHdf+0z9x7Vf/hd889gjDlRJ1oQm1YrJaJgh8ZNWjKdC0YuEIA2VK5h21nOUnvpX+sWHu+dnPuOP227njztu546e389Of3c4vf34XU2PjeF6NwIJtUZGwyWbd6jX8+s6fgRIUbYtl55zJE4VR6o7LRN3HzuYpV8o0Z1yMsIapVNwzoKE9naFcKDNYrsThXb9nrHzLoufH8uUaIhZ6FPZ5U5/CF97yKj6mii9gzb6ux3c7qxvd+cecNi0sZxe9fPaYRoqm5/EdHm10lS5/1+X7iRN+lXngWu5cE7dxfsUlfO3y/T4F980Vq1jtAeYyVu4zoT5AL1ee1gjzWrNq77jcO56NBS9zNCu/uO8WZO5lHLc/kf32Y3HaQ3MZKz/3Io/9QDxwKTc+0OiOXHEZ3/nKK/jdrxn9XLPTsn8Vw4P2Yk8x7LubLx60GN7OXavj3pnlp1y9796VT5/HiZ0A/Tz63Wm9Qy95vwfBSVezcnH8cfXD35leetAclBCHUcT24SFCHdE2o5tQgjQtHCSOFvRv7efWO35C6Bic9Pa309HcjFetogxNa1cHiggzUISVKrV6HUwJpiQSOl6kRglIZTI05XM0ZbI4wqA6Mok3PEF9ZAJXGBwydz7zZ81m2aLFdDS3YpsWTU1ZIhXihz6WbWJIiY4iRkdGOP7Y47n44ot5//veR2dXFwrN5NQUtXoN0zAIPA8RRjhSkrJt6pHPlvFhfvXMo2waG6S5vZX3vut0Pnreh7ngQx/hgx+5gLPPP48PfOxC0o5LgGZYVyk1WwxNjfHYfQ9g+hGBY9J8zHKGmxwmHJvBapVtUwVqUtDVnKYnn8IRIUIFCAFKCLpmzWbUD+gvvfbpLS/92s1c+6n95f7t5Zwv3Ma/vjuOBx353e27g97X7By7Wchxn5n+oFzGpTd9uZEi8VVi9ciu8Iz3PG//r/fxreLL96yJu/OXnc8395E5auXlX+XCo/dnkfdz+bfua8QJn86/3n0F5+xLcOau4BPXXHGQMbAvln6+9OdfaSQ9yXHMJ7/OQ7desd/Y8uWnfpQL9krKcRXX3BM/7Be9/2q++bxUir1ceMPNXLCMOOnE96eFae3xIrD8/K9z5fMSfpzC3/+fj3LM/vKN932BG+9vxAmf9VXuvmrfITy9Ky7m2i++OEebGz5/PQ+OEPtNnP8tnr33Oj6xYl/f/jpy7mVcuV8v6VO4/i3xS2BhZNP0wleeuWdz/Y0NMdx4O5f98Se48UWI4fe++Us2hMDC9/O/p4diHXEJt1wUv8x5a37Gl/ccYnhZ+/083/zB1fu9rr3v+zy3f/V8FpnAxCp+uJ8QuYPhBWdf2snJRx7DP334Qjb+7A4GH/kdbtVHNDXxs+oUP2t2qDsW377uaxzSMZPvffs/+fFPf8q4V8MACoOD6HIFrX20KWhvbsHQEHh+nH1aAzpiXu8s3v+eM1nY2YMqVPnlT+8mlU6RaWvm3Av/mExPK63t7YQjU9z8H99mzfq1nHveBxjZMcT9P/8FAxOjfPijf4xUmv/471vYPDLIB8/5ACccfSyOYbJm9XP8+hf3YgjB+z/yQY5ZsIBNv3yQJ+79FRlhUwthfWmCAVWnd+lCDp23COlFSNdmolZi2VFLWXny23EHRnn2xu9TDauMOAFubwcP3HE3zmiFrJIE7XmO+ND7Kba0QOdsHt86yu2PP0mpVOVds+cwLygTrXuW1PZRMqZCtric99ef4rlCib/6xs0MlV/bzFrX3r+FCxqGmVfxqE/2x9O2ZTqZ3ZHbNdm4t+4WLl65p4fhKVx7/9e5YKEDeIxs3Mj6tSOkFvXSO2shnRmPDbfdj3vuvmYvOcgZY3bOrPO8+sTTNz5+NSsb0zf2r1nN+kqe2Z0j3HvyRXzpdT++Ffz9nV/nE0fEXVfe4Ea2NXqv3I6F9LaCt/FxtvUczaLMvmdfWvmVe/jG+Q3P7tCjMNS4Njh0zuokn3HgeTM3HeSxHyynfp7bd06T2cCrFBkZGKHeOA7XcXDMfe3vFK699+uN7Fp7t0G+e2Gc9hKPDbd8kpMv20es8Emf5+6vX8zyfHz+I339FCLi81/QS9702PB4P7OPXoizz9mX9t4/XpH+vpF4mGXP+3ufdV+APSytXXgehdG9r9HOtqHhq3DoeXuGyuycfavIg1ccwfl7FH3i1qf4+xW5gzi2/VzvnTNn7bxvxkfY2A+9i3rpXdBL3iSetOJPTuMzBzk+/pLZ+Ts5WPbxe9rrtzDRz4ZRD4w8s+fG6U8prOGGT57Fl/Y8l5e1353XJr5vRvpHGvceuB299LbuvKc28r0/P+1l5Rw/KIsYYNvwIHUpqAtFVQVEkcIMNHknjQojfCm46l++Qr1a423HvoV5PTORYYCwwG1tQlgCqQQEIZOTEwRaYaYclBREEpQUhEqhohCEZOb8OZxy9ns4/oxTOeTEt/Dwlg08vOYZPKGoKp+psE5kSwIVEYUhQRDEc/5qjSGNOJ64Xue+e3/J008/jTAk8xbMY9GiQ9BKkc3nCdM28996FO/+5Ec55U/O4/QLz+cjf/5x/vwvPsGJJ76dnlkz6J43m47ZvXTPmkHWcgiLVZ57ZjXjlTI1U2BmU6z65YN4kyW8wGdKBHQcuZRKc5ZcaydThQprB7ZTrylmNXfQbIGqTuGIAMfSWJbB8qOOompK7KWLmaw/byT2VWfjmo2M7MxLkXHIz2pMeD2r8ZAq9PPYd7/A2XuJMMB9fObCq/jhukYs3cJlnHjWKRyzeCGd9PPg1z/JyZeuYmsjHvmV5xY++tlv8NhI7Anae8QKVq5YxqKFvY1x19f7+FbxpTM/vDt8pGf3ROK9OY/+Vd/g4pO/zbYDvHfde9lpnP0Pt7N60ANzj2uzOJ7gnLBI/yOP8dj0iq8kv7iKs48+i8tvW7PHfZKjd4/jiB+Eo2x7nlFwH59ZeW5ct7J3G3TmgYmN/PAfzt23CAM8cBWnf/gL8TU0HToX7nH+XuMafruRlGWf7L1/nJ3Hvcf9PdHPY489Mb3iC9N3Ex8/8TQu+erdrG7kHsd5/jVyzMYLwFOr+Okr7t1+ANY9zqMb43bLz1rIoiNWcMZZK1i+OBbhwsb7uOHPXwMRfoW497LTuPjrq+ivAK29cRsvjEW4sO52Lv/wNBF+2dzNvb/cSMGL75vd997CWITDIhtW3cTlK1+eCPNiLOKUbfGtP/8r5LaNPPHTn9HiCZqzeZ4wBTeJKuM5F0dJPnvehXzsnA/y7W//B/91+w8oiYBIauqDY3hj42jtE6IxLZvmXB7LsAiDAK1CXCE5bMECTnv7O5jdM5NZs2fjtjXjNOfAMiEK6G5to7Cln3//f/+PkakJjj38MKoTBR56cBVTfo1T33UqMtT87N576RvcToQm05TljDPfw8JDluBNFOlbt4E5Ry7BTpvkpCSdssFXVKYqCGnhZLNgGpimCUIgTQMHQTQ1xdpHH0WNTtCsQTZZPPDYY0QT47haoNE4M9o48pz3EvT0YJrN/HpdP7/YvAUdGBySy3NMm4vYshZ3xwBNZQ9pm5z+lxfjLpjLL/oG+MzVr0X22v0wdwVnHNO+V4KL4sbbufdgpr474hTOWbgzJ+ImfviL1/CBAyw/tTFxPR6jj939/HSWr/PxQS8nnnUUHQ5AiQ233ceLTpA47frUB5/grlXPU75Xnz3bEl7U+ey+Ti/i3trJnuf/Eq9h74rTObZnpwW7n3vlJbOMlecu2DvExhvj0TtW7dNR8LVjz3uPF3W9fl95wd/7K830e/4l3n/746CFGOBTxx3PO7o7ue/uuzH8gDnZdnY4LjcVRpns7qCmNYf1zOGqz/8vTOVz9VX/H89sXk9kS0xgx/qNuEGI0poARcpyaWrKYJgGKowgikgJSZudImelaGpqQjgGWgqUCpk3Zy5//7f/i8rYGP/x/77Fbx9+iHrgg4Yg8KnUa2gNacfFsi0CFVHxPWphgBICDIlsOJpFIiJEIZUCrTFNk9Dz41jnRlJs25RIBDqMSCFoweC4uYvomdmNlzdZ/czTTPRtJ6PBNAQqa3HiH3+AanMes7OXSc/m+/c/xqAX0uOEzDZCjuyZS/jYE3SMDpEOI9qPPZRTPvXnZBcexkWf/Tvu/NUr+kqXkJCQkPB7zkF3TQM8snEDecvGR7M9rFIxFEGtTltkYNYCQg3rBrfzo3t/Tq6tjfecdQbtzc0E1Tp+6NPc0UZkGmAYSCHxA49KpYKKIgzTxDIMLCEhAs/zmJyaYnxqEiUETakMzakM5YlJSlMFjEjjKIERaQwEUgscYZI2bRzDxNRga0FamDRbLnnLpUnaNAmTJiFo1iZtyqJNpmiVKVqFS3emmZ5Mjm4ny6xUlt5UE/PSeQ5t7uSwth6WdM7CzqTxXMn67f30DQ4SIvAReIbJvKOPoZpOU7MdJr2IB5/dwGCxjBOFpFQdEx/HkOhqnTQGlusy/4TjqTZn0S05Hlvzyr1hJSQkJCT8YfCihHh9sYCq+qRth9FyidFKCYmmRQhEvUaEohYp7r3v12zp6+f4E97C8mWHkjIt8AKy6TRW2iVi5ziuwPN9ypUKURhiYWAriakABAGKKhFLjzyMc//ogxx33HFs376dyckpEGAaJhaSlDRxhUFKmjQ5Lq40MSKwtSRjWOQslxYrRauZosNw6MFlpnDpNVLMsTLxYmeYY6TolSnmminmOznm2znmuznmp/LMTTXTnWshbE7xzHA/zz2zFh0IAmlSEyZ2exdtcxdQ8jVKOjy7aStbhybA92kOSmSCADcUcbdVpYwlTToWzGXxCSeQyjUzsGMboxOT05s8ISEhIeENzosS4kIYsW18EktKPCnYMDpIQEQ2DMlGGuErhDTZNjjK177xLexshpWnrqQtl0d5PlEQ0pTLg2FQVyGGaSOQ+F5AtVpDKw1KI6VBFEaxSFcr/OrBB3j6maeJopDx8TGeW/scWzZvwavX4xmfoggpJJZpgtKoKIqTWevYWrYU2EqT0vEMOzZgAbaIF0dqHCJcNFkhaLIsmqRBRhpkEeSlgTA0NRf6x4ZZu2EDSmlCBGUNQTZD66KFTAqBmc0zVKyzYfs4E1MVrDAgXS+R9X1atMStVGg1TNqamznxfWdhLVyIzDRzx10/J/p9TOSRkJCQkPCqYmQyuX+cvnJ/aCFI+T65KGSkVqTi1VFa49gpypZFUUjCUKKQDA0Nkc+leNtbT2Cov5+hbQN4foDhOFimRaVawTFMtFKgIQwjTARNmQxepYqOIiKtiFBUK1U2PbuWyPeYGB3l1/fdT61SxQt8NBBphdIKBERao9AgBMT/gogTZxiAITRSgGj8XxogpI4tbBFhApYQmGhMIRBS4AtFLWsxTJ3nNm/E80KEYeIphTZMmmd00zJvLuSa2F6Y4rkdE2waK6MCRZuM6DQgGwSc+Za38Nz9DzDfyXDoooXMeO9pkMtiNbdx9Ve/xraBwelNnpCQkJDwBudFWcQC+N3kGAFgCpMJBdtLU1RrRbyJCTKBQtZ9lNKolMv/++5/sbmvj7PfcwbzZ85EagiVIJPOMLdrBlEUEOooTi0lNEW/SiGoI9MukQCpNFaosSONCgIeeehhfvXL+6hWq3i+h9IKT4d4RHhC4wlNINlj0USGQol40Y1FiYhIKJSIRTu2QxufhIo/C40WGt/QFJos+sIyawa2UaiHhAhqShFISaY5R88hhyCb8xQVjFUCtgwXqCmLrBGSUQG6ErCwrZtgZJSxLX3k3BTzDj8SbAcNTFUqPPPs+unNnZCQkJDwJuBFCTHAYBQxXK1AqJES6iYMVYvUggpWWEVPDePoKoGuMF4v851bbqWjo4MPffCDNEkbWQ7BC8mkXXLZLK5toZQiROOpiKlqkZqMUGkLT2oiNK7lYGOgg5AwivCDgHoY4CtFpBQa0GL3ooQGFBLd6KEWKCBEEyhNAChJY2rGRmUl4u00hEgiDGqGJMhmGA3qbNwxyNhUBS0g1Jp6FJF2XObMnU9kCkIDhqcKrO4vUqlDOqyRDutkA585TprWAIqb+8k4Dq2L5mEcMh8qNRAGv37wN1Qr1elNnZCQkJDwJuCghVgAAk2gNds8DxmE2AICNFUUEGAGJVJhGVUcwQw9nJTLY089yW8ffph3vONk3n3KSmw/pFooEkUhra0tsbd0w2NaAzXfZ6QwTo0QmXaI0Pieh6EFhpBoHeeKDlREJDRCCJgegCXi2Z0MBVJBIyCJCAgFqJ3bCxBKIJREK4HWkkgYhFJSUYq6Y1O0JGu3bqVcqSHiIWwiJFIadHR2YTo2wpSMF6bYMVFgvKyJaiGp6hTZ0KPLsJhrOuiJKQoTk8ycM49l73wHRtYFL4JClUd+8zBRlIwPJyQkJLwZOWghBnYJ3mioMUKJoyWRF2e2siKNKpZJAxSqGKU6olTFr9a48dvfYcu2AT78x/+DQ5YuIp1OMzExQb1eo7U5h+vaCBRmQ1PrfkChWCSKIhzHJYyi2Nrd41DULus3/v/OdarxeRei0d28c9n5LVoCEr3rSyUaCVqiMPByLpOG4skN6yl4YbwTIZCGhRCCXK6ZTFsbqdY8xeIEo5NFhidqGNVJskEZ16/RqiWdkcCdmKK5pYmH+9bRtXwxmTmzIRLUp2psfOwZtm7bgdp9IAkJCQkJbyIOSohjbdO7hLBsGBimTZOwsBpdvgKFDCIkAlsDxSoUymQMh8lClX/71ndINTdzwR9fQC6XwbZM/MDDcRzy+TxRpLBMiSEFEvB9j6liAds0yTU1oQxBKDQhmqghynsuu+3JuDt65/HGXdM7xTf+W2lNFEVEUZwSU6u4jhIGvpB4jkHR0Kwb2sFErYYlBaHSoAVaaVwnRWtbO7guQ6USBd9nYHSCaqVOXgW0aY92DbMCTa5YwS9MERJQijwWLFlIWCmjtWbd7x7jud8+Sn/fq50WJiEhISHh95UX9JreZWDGjsUIBFJAdwRtpk1VhUzqiFCAliaRbRMoBZEm8uu4Tho308zA9kEiHXLG6SsJwzpPPf0EQgqUUmTSGUzLpFatYSIQgESAiogCn57ubkzLoFwto4RGNLqxG+HGz++ZRiN1PO9xXLrbTBbE6qy0RiowhImBQAlBYBpEaYe6bfDs9m1MVWsgRNx93fjHtiw6O7vINecJTYPxwGNHscxEOYRQ0RYFtImImY5L80SJTKlCKmVQtkO2jgxy/jnnknVSDG7eyg9uuplKyubnmzf+fs5BnJCQkJDwqnNQFjF7SJkA6kBFCLKGQ8pNUZdQjCJqIqAiA7RjoFSAGXrUiyXCEJq7ZnDnz+7mqacf5y8u+QTLli/HcWxoWKQ9nV1k0uld+zOlJGU6GIbJ2r6NpLIZmprzKEMSSQgNiBpHP703en/EwhzLvNaCqNGnrRtWvWca1DMuawa3U6n7RAqUFiDNXU3V2tZBU1MepSLK9RJjpQJDnoGnBOmwRiryaA0j3PEpjNDD86ukTMHgjq3M6e2kO9tCMFHm1ptuwjYl40GdchDsfaAJCQkJCW8aDtIijm1OidgZnosU0CMkWmhqUUA1UtSUQto2hjAgCMi7NoYf4mjNvK4OMgaMDg+w9NAlvPPUU1mzejXVSo0g8NFak8tmKZfKiEgjAFMYRIGHKQzqfp327k4CFeKHIUqAISWGjiVSahBKY6iGk1ZDdE3kThsZoWUspztNaCkQphl3dzsWdcdk49B2Jqsl0AJTGmghMKQRzxblunS3dyANg1IYMVYPKHia0Bc0a0WPCFmUy2JNTeJUqkReDTdtERmasXKVY5YfxmHzlvCrX93Pg6vuY3n3PO4eG2K799rPuJSQkJCQ8PvBQVnEe1qcglgkxy1JQUTkpMUyt4UuaWJocHyFFUQ4EowwoM3QzDUjzjn2cN5z3JFExQJ33f4TZnR28vE/+VO6OtoxpaBWKWOZJrNn9aIAKWLRNISBVorxYoG+ge20drSTzecIdRzypBuWrtRgaYGjBI6SGMT5rA0tkUgQEqFFw18rrqeEoCagagk816JvfJipSgWtBaFW+CoiVLGXtnAtWno6kLZFNVRMhDBWEwS+RYeCORLOfctbePcRy0l7VQzlIwiZCCpMORozCjl27hJ2bN3C/Q/cixEq2pqa2FQq7dG6CQkJCQlvNg4oxM/r8t1jRYBgVIIhBN25VrrTOTKA8H1MFLZpYlo2tm2StkwyQnDOBRdw+MJD2PLsOm777i2sOO54/ujcD9Lc3IJpmtRqNVzXZe7s2ZgynklbAFJKHGlQKRbZsGETmaYsqUxqVwwxDTG2jDgUyjYMXClJCQNXCCwhMNCYWmE0xroVGp+IwAAz18SWkUEK1QoKhYj7sNFoNBGGKejtaSeXkvhRjalIMaYcatLEtgXNKZNTjjma9534djY9/DguEMgI39Bo16KmwTANZs2awU9++VNGRgfpaW7h8VqRgg53N2pCQkJCwpuOA3ZN7xoXboiXFLEDVNzZCxrBXCSZdBrp2kxUytSiEMOykYaBaRqkLZPWVBqvXOPdJ55ER3cn5UKRtWvX097ewTveeQpDw0Os27SBIAiRCJrSGdCKoO7FjlWRitNWoqn4AeVymd5ZM1FBCEGIocHQYBoGppCYUuICGSFJS4nWikhHGPFX7ErugWthNmXpG9nBaL2GaJywiE8OIQRSSnq622hryRB6dUqhYlxZlHFptiXLu/Icu3A+73/7SYRjY6y69xf4OsKTEUoKTNvCdlN0OBnMKOSeBx6k2bY5dtlyvjc8xEgU7dnkCQkJCQlvMg5OiHf+X8QezYI4b3MoBL1CUi+U8FVINtPMeL2KtO04/zOKlGXSZDm0uhkc2+Wwo44mbduUCgU2blpPa0c7J618J4MjI2zr30YQBMgoordnBvVqDa9eJdAhWmvUTmtWRWg0TdkMQcXHIp7wwRQSU0gcw6RJQFfKZW5XN5VahZAIoRRCa4QBPop0WwsTXpXhcoEwzrIZoyESAseyaG1tpq09Rz2oUw40BWlTxsQxTI7sbOGtM7s49egjSauQ1Y8/xpbNm/BUgBeG2IbAMS1spZnhpBndsJl5XR2c9fZ34GnJt3fsIJHhhISEhDc3L0mI41QYIBCkBTSHmlqlRqVep2bIhiVoUgvrOKYkLQzS0kZGitndXVimQT7XxPpNG1i7eSNLjjiMo95yHFu3bqN/y1Z0GGEbFq35ZirFEkHoNyzwmFBDGAR0trUTlOvx/MNCYAiBbZg4hsGclhasmkdnawueDqgGNYRWICSRFgRS4LY2s2l4mKkoJNBg7nGuWsQTUHR1dRDqOuUQijrNlHRRhmZxe4ZTDp3PR858F2sefQR/coJNzzyDqtQJfR8VBWQMm7k9M/CmyhzdM48lTe0szuVolQ4/HtjBQ9Vyw/xOSEhISHiz8qKFeOegsiAeH46AHqVxLRvTMoksied72JZJEHjYwiCNQVTxkFrTM28uS445hu5lh6IrZR578nEe+d2jnPau0zjkkMWsfuoZxkdH0WGEazm0NrcwNT5B1EjZsUuMlSLjuphaYCExtSZlGLjCICski7o6mdPaTHViAtuUVKolBCEaAy+ShJZJtrONLSPD1COF0vHUiEbjJcMyDHq6u5GWQSkMqSibms5QjxSH9LRz6tKZnPf+M5m5fClOscjkpi0MPb6afCiwwpCulha62tuwg5CZpku7L2hTIApFpOnyfyZHGI6CPVo3ISEhIeHNyIsW4p1d07KR2EMKQT4CW0U4KQdXSloyaUwVZ9pykYgwIptKQRjR5Lj0tOTBkNRHxtnet5Whvm1sWbOWU1euZNGhi3n66dVMTU4itKY5l6enp5uR0REc0yRSCrORX9oQgo5cK4QhWWnSZtosaG1n+cyZ1MZHmd3ViVn1abVT9LS144U+Fc/HFxbKMambguHxUaQGxwALgWMaSCFYvHAe6UyGsVKVUU9S9U3cSDI/k2LF7G5OOewQDl2+nHDHILbUGFuGmF+FhU155rW109rUhJV1Gd22haVOimbtocIqdksrm3o7uXVokGoUJkKckJCQ8Cbn4IR4l1bsjCOOBdlo/J0CslEIWhGFIaaUSKFJuy62YSK1Jqx5uJZFrVLm0EOX8tgDv2bbQD+WaVGcmmR0ZIytOwY45fR3cfjhh7F27VrGRscASGXSOJZFtVpBaA1KIQEVhrTlW9BBQFoLutNZlvbMotNN4RqSkR076M63oUNFpBXaMhkrVShGiqbuLgbGhinW65gQW9bCwpEGPe3NZPM5BgtFxnzNVGRgBhELUw7HdLUxJ5/msOOOoqt3JqObttBUV7B5By2hRtVr1P06oSSeQnFwmPmuiys1oSEwu2ZyTxTwq6Ehoj0s/ISEhISENycHDF/aUyT28GPa/VlolICCIagJjR8GRGGEoQWOMHCEQc5N0dncSmtTHhWEFCcnefThh8hkUlTLZcrFIipSeJ7How8/zH/8279xwnHH8T8/8xnmL1pIsV5lolyia84s2ro6CZTClBILAVG0a6IH3UiXGUUROtK0trTj+ZrQsBDpDIG0GJ8s4SkQtoV0TDzfxwDMRgyy1DbtzZ10dXUzMjnBuOdTM0zQiplNLkvbsvSmDTqyGZpbuyhPFin07yBcP4BRqeMR4pkCz4TQUIwPDtGZzcQzHQuIhGTCkjw6MkKYpLRMSEhISHghi5hdVvHO/4rd3dONDFtojZKCbBiQFhLbtNANkSlXqrS2tGBLk3wqS8ZOYUrB5k2bOOqYo5mqFPFURMmrUfVq1H2fbVu3MTo8yvsu+BAzZvTw+NNPUaiUkJbB/PkL8Co1SsUiGWFhIPAkNLe1oXSAUiFTUxP4KiASkM7n8YRgtFZh4+AOBqYK1CyJzqYxcyk2D/RjWSYpw0AoQXvbLNq7exgtFigp8ISF53n0ui4Lm1LMaDLJOZK5vbNR1ZCJjVtYetiRTNz7W+rjkxSqFbzIp0YIrs2WrVuZlc3jRiG2ZVK3Jf6SxXzj2bXUElM4ISEhIeHghXj3X/EY8a40GggECkgbErdeQ2oBKu4KjiIVz8ZkGJgRyEiBUmhDkMpnOfSw5SxZvoxn1z7HRKEAUqKUYvvgIIWpKVa+5z3MXTifjVu3MDw6TBSFHLnsMMJCBV2Nnb+EkNhS4kqJ1IpIRRSrZYbGxtg+MkbfxChDlSKTQUBgmUQpG98SbBncTj0IEFqTEibtze3kOtsZqtSYiiyKvgYULbZgaXOaOdkU7ekseTdLR0sHPR1tpMo19HObKfcPUqtWKHtV/MCjLjRjxSlsL6LNcrFRmKYk1dXB/UJw78AQiN2tmJCQkJDw5uUFhZidYrzTAm6MC4NACr1rAFlLSVO5jCXNxrSCGoHAC31StotWoKMIFUUEKmRkcpxqvU5zayt+EDBVKBKEEYZpEirN8NgopWqVd599FosPXUpffx+TY+OkDYuu5jaCmof2I4wgwoo0acvCNuLc15HWRAgCQ1I3BXUJNaFRjomyTIbGx6lGAaFSWJakJZthZm8vQ7UaIyEUsUGadGZs5jaZ9KQUeVOSkSn8Up1D5syls62ZwYefZPy5TdTKJeqhjxd4aBURWpIdUxPMSjeR0xJTaLSElgXzuGLNeibDqJEoNCEhISHhzc7BC/Fef8eW8U4LGQGBELRJiR1EsdWswTAkWmqUY+EbGl+qOC2lAq/uMzg0xNDQCL1z5pHP5+kfGEABpm3guCmGh4eYGBvlzLPPZM7CRax5+hmGBrbR1d1FU1ue0cIEuu4ReDX80KOltRk/8Il0hEaiZWx1RhLqUYiTTTM8OobnhyhDYLg22ZYss+fNpG98nG2+yaRpUApKzMnZzM9adNsSoes4aQfbNXnHW47nkK4eHrv1RwSDY+iaTxAG+DokEgoVKUqhT9Wv0uJHZIMQoSOMTJbn7BTfGRpFJ7HDCQkJCQkNDkqI2Ut84792WsiNaRfif6VBsx8gGgPIUghqgY8nNco20YaMLWilGmknFWPjE2zcsAHTMDAsCzuVwvcDDEPi+T7DQ8M8t3Yt73zXuzniiCN4bs0adgwN0tzRRnd3J5NDY5hCojWUyiXyra1EKgQBGgkCIhWRa8qydUsfpiFRQhBGEU42TUtXF0PlKSp2iuFQolTE0s5WljSnaTcgb5sYUpFzXY5dtJi1v1rF1ocfJ1XxMPwIFYb4kYfvewRRgHZNJgpTSD+gy7ZxohAwcNu6uHpwiO16d37shISEhISEFyHETMsCJRqTI4jY/NUCX0pagwCT2JM5jEKU0NRDP+7KNgyEETtqC0TDMhREYUS1WsFxXY497ljKlQrlShnLsBACClMFRnYMcuTRR/LWk05kcHSEvs2bydgOM3tmUa5VqAc+da9OvV4lk82gpCAizlsplGJqbBQZhnhRgDIETfk8rV0zKIWaMU9TlgY1FbA038pRmRZyUYStQogC7Cig2YPK6i3kiiGpIPYQ10qhtCZUUey0hmZK+1SLJZojiQ2YpoUwXTYKg/+oV4kSYzghISEhYQ8OWohpiHEjl8Yut62dIiyEJtLgCE0qDOJwHa0a4i2o1z2QEtOxiXQ8hqy0Aq2RQkCkqFZrDOzYQUtzCzN7ZlApV4jCkCiMmBwbY2BHP0sPW85b3/EOxkdH6duyhea2Fpqac5QqZcqlEr7vgVa0tLTgBwECqFdr+LUqSisi0yDb2UFb7xxKCsarPsWqB37Ioa1dLE430YoGfGQYkqoHdATgTFZpUgaOFhBEoKI4XSaagAjfFozXy9TLVbJakFMGriEJIwgsl+/riGd1mFjDCQkJCQl78aKFOLaE91gjdosxaEIpyKkIQwiUiF2SDAS241D16lQjH8dxQEoMw8BAIFVjhich0EJSKZcJPI8lixczPjGBbVoEUcDY2BgPPfwQCxcdwnvOeT9Dw4Os3bSeTD5HS2sLxfFxdBBhakGlWKR3xky29w/g1etopbFMl0xrB81z5vPc6AgTYUg1iIgqNU5YeAgLczlSoUd7Pk1QLFHoG6DXydBa1WQbx6gaTmgC8IWiLiJqkcdkrUyIwvYUzdLCChVBEKBsi63NrdwW1CjrJHY4ISEhIWFvXpQQs6cY77UmFmONIBAC35BkibuEZWPaRLRAGxJfK/wwxBAiHheWcUpJQws0CmHGIUxTU5NMTk2wcMF8qvUqhm0htCKo1nluzbO4mRTv+9AH0aZg/Yb1mNJg/uy5eIUSfrmCowVj2wcxDAMlBNq1kU0Z2uctZWspZLsKGfErNOdSrJi7iA5ToGQV01EMbelDDQxxbOtM2nyBGyokikhoIkMTGprA0FTMiCnlUaqUkH5ENpI0OSlMpTGURjsmA63NfFeFbPa9xBpOSEhISHgeL1qI2SnGjcQe7Mq01fhLQE1IaoAdRthaYygQYYSpNDYCQ2uiMIwzcSmNNCSmIRFSxr5cUYghJCjFxNgonW3tNKVShH48SUKlWmJg61ZKkwXOeN9Z9M6bx/Zt/VRKZbpnzMAPfPxKFRFFhFISuA6Z2bOxZ81iXaHCdi+g5NWY3drM8vY2ZroGaeHjV4uUdwzSEgiW5brIhhpLayAiRKMMqAtFRQVUlYdfqWHWA9IIMhikhQEqQhsmYVMTz2Uz/LeKeLZWT0Q4ISEhIWGfiI7OmS9JI3aKsNC7/KZ3BzUJjdDgasXcWo1mP8RScSpJicA3IJCgDAGmCRoc0yaVchESpGFAnLQrDmeyLFK5HF1z5lCJPAq1ItIwUaYkN7eXT/71pzGCiO/ccAPl8SlU1Wfw2XWMbd2Obxu0LVxE0U2xw6syWQuRkcG81mZ6pGKGLUipKoWhHXgTJXqyzXQ6WVxPYarY2UupECUVpWqJQEWEWiGEJu9pmjyNkHEbmLaFloIw18LvXJc7iwWmomRcOCEhISFh/7wki3gnuyzjhgPXTnZayKGUFG0LKTUGamcFVDyZMZYWiCDElpJIK0peBU+FCEPG8wtrsDXoSFGNfAqTk7Q15ci4LsVymdAQFIslnnjkERbNnsO5f3Q+Q9uHmBovkGvpxDNs7O4ZTFg2aybGKdoGeWlybEs3sy2L1pSFFAETfX2kJkoscJtJCRnP0kRAXSrqIqBmC0ZLk3iBh6XAiSDtK7K+wI7ieGVfgGcI6k1p7jNMflIsUE1ClRISEhISXoCXJcTssoxjp63dHtW7SyIERdPClwIhwRMRVSIiCaaQmAgIFVprDClBQ1D38P0ArTVIgTIkhmXiCIPqVJFatUo2n8eLQgwl8IpV1q95jpQ0OfH099Da2sW24RFGgpCCazJcrxIBzabN4W0ddKNxjZDK+DClgQE6MJmVbcbUEIr4GL0wQPs+2vOpTk1hhgpHC8xIIyOFqcDAQFgOdksLlVyWLdk0PwoUD9dqREkKy4SEhISEg+Ald01PZ7fzFnEu6vjfvcpdNKnQIxXUsep10sIgK2KBjSeTiBOBRGgwJMqQYEpMw8CWJmnLxXVcPBSyKUW2vR0VaYrlMpgmbibNsiOO5j3nf5jItHn4qSf4+s03UiwW6MlmmeWkaNNgeFW2bu8jHUXMkimyWoLv40UB9dAjDIJYeH2FHUYYjRhh0xQIITEti6ZMlkyuGT+VZnXg81StyrPVMmWVWMEJCQkJCQfPKybEO9lTkOO/4/FTiMN/4nWQQtMU1JCVCpYOSdk2DgaWAqE0UkqklBjSwETgWjZKxOPLpuvgptMIDFKpDNnmPKNTU0S2gbBt8p09fOTP/hwj5XDFZz9Li+vQ2uTi1Yo4OmC8r4+UEvQ0clZ7noeKIpTnIz0fx1c4SjTGtDV2ysKPQhYcsoAjjjgS4Vj8etNGfrSpn+fqHrVIEWqF3mM6jISEhISEhIPhFRfinUwX5P0hgRSKtF/HqXvYWiBDhURjSQPHsHGAtFJoU4LroEwRhzxhkG9tQRkSbdv4JpSDACebJRKQz+ZoihTSq2KampKqMdTfR6uwaMamPlWi5sVZvwRgK4UTadxIkDIsHMdC2xa9hx/OvCOWM1Aq8uPHn+R3AzsYD6O9cka/Ko2YkJCQkPCG51UT4unsS5in79hA4KAx/AgZBDhCYkeadBTSoiMcQ8QpMoXAMIz4W6VEujZWxiWwJKWghtOUxTFN2nN5LDSm1kxOjDEyMUYKScpTmEGEGShEEDbGexVSgmPZpNJp/HSGejpDyU2xoVJha7FMMQyed8zs4zwSEhISEhIOltdMiF8sAjAR6DAiLSAVVHH8OilhYIearOngCIlEYAiJYRr4pqBsRgQZm+ZsE125PKYU1GtVBvv7cesRaW3smhdZaDDQGAiQGi+XZcyyGVSColKUowhv2lh3QkJCQkLCK8nvrRBPRwhBNu1iehXk2ATNSLLSxkSQ1hIbg0AoKq5BOaXJ5XN05VqwgPGREfxChawXh0xFSqEEKEOhLZtSymGrFIw1vLcTEhISEhJeK/5ghHhPTNOgybLwJycRYUDOsLCrPq5hITMONUvjCcW8eXOh6lEaGMaoRygpqIchdR0RWRZ+JsWk1gTTd5CQkJCQkPAa8QcpxHtimSamUsggQIYRWoRUQx9DCNryecJaHVX3kcLGExBISWRbhEmcb0JCQkLC7wF/8EK8EyklWitQGtM2yTgutmlQ9zwqtTpKi3iCqISEhISEhN8j3jBCnJCQkJCQ8IeInL4iISEhISEh4bUjEeKEhISEhITXkUSIExISEhISXkcSIU5ISEhISHgdSYQ4ISEhISHhdSQR4oSEhISEhNeR/x+DiHpped0/IgAAAABJRU5ErkJggg==;" vertex="1" parent="1">
          <mxGeometry x="164" y="20" width="482" height="108" as="geometry" />
        </mxCell>
        <mxCell id="0PEOZsDTC55XXhyj8gNq-2" value="Desafio 1&amp;nbsp; - Arquitetura S3 | EC2 | Lambda Function | EBS" style="text;strokeColor=none;fillColor=none;html=1;align=center;verticalAlign=middle;whiteSpace=wrap;rounded=0;fontSize=16;" vertex="1" parent="1">
          <mxGeometry x="156" y="120" width="487" height="30" as="geometry" />
        </mxCell>
        <mxCell id="0PEOZsDTC55XXhyj8gNq-12" value="" style="edgeStyle=none;curved=1;rounded=0;orthogonalLoop=1;jettySize=auto;html=1;fontSize=12;startSize=8;endSize=8;dashed=1;flowAnimation=1;" edge="1" parent="1" source="0PEOZsDTC55XXhyj8gNq-9" target="0PEOZsDTC55XXhyj8gNq-10">
          <mxGeometry relative="1" as="geometry" />
        </mxCell>
        <mxCell id="0PEOZsDTC55XXhyj8gNq-13" value="" style="edgeStyle=none;curved=1;rounded=0;orthogonalLoop=1;jettySize=auto;html=1;fontSize=12;startSize=8;endSize=8;dashed=1;flowAnimation=1;" edge="1" parent="1" source="0PEOZsDTC55XXhyj8gNq-9" target="0PEOZsDTC55XXhyj8gNq-1">
          <mxGeometry relative="1" as="geometry" />
        </mxCell>
        <mxCell id="0PEOZsDTC55XXhyj8gNq-16" value="" style="edgeStyle=none;curved=1;rounded=0;orthogonalLoop=1;jettySize=auto;html=1;fontSize=12;startSize=8;endSize=8;dashed=1;flowAnimation=1;" edge="1" parent="1" source="0PEOZsDTC55XXhyj8gNq-9" target="0PEOZsDTC55XXhyj8gNq-14">
          <mxGeometry relative="1" as="geometry" />
        </mxCell>
        <mxCell id="0PEOZsDTC55XXhyj8gNq-9" value="EC2" style="verticalLabelPosition=bottom;html=1;verticalAlign=top;strokeWidth=1;align=center;outlineConnect=0;dashed=0;outlineConnect=0;shape=mxgraph.aws3d.application_server;fillColor=#ECECEC;strokeColor=#5E5E5E;aspect=fixed;strokeColor2=#292929;" vertex="1" parent="1">
          <mxGeometry x="421" y="384.41" width="55" height="55.44" as="geometry" />
        </mxCell>
        <mxCell id="0PEOZsDTC55XXhyj8gNq-10" value="E - EBS" style="outlineConnect=0;dashed=0;verticalLabelPosition=bottom;verticalAlign=top;align=center;html=1;shape=mxgraph.aws3.volume;fillColor=#E05243;gradientColor=none;" vertex="1" parent="1">
          <mxGeometry x="326" y="388" width="32.5" height="50" as="geometry" />
        </mxCell>
        <mxCell id="0PEOZsDTC55XXhyj8gNq-14" value="" style="outlineConnect=0;dashed=0;verticalLabelPosition=bottom;verticalAlign=top;align=center;html=1;shape=mxgraph.aws3.rds;fillColor=#2E73B8;gradientColor=none;" vertex="1" parent="1">
          <mxGeometry x="430" y="483.21000000000004" width="42" height="43.79" as="geometry" />
        </mxCell>
        <mxCell id="0PEOZsDTC55XXhyj8gNq-18" value="" style="shape=image;verticalLabelPosition=bottom;labelBackgroundColor=default;verticalAlign=top;aspect=fixed;imageAspect=0;image=data:image/png,iVBORw0KGgoAAAANSUhEUgAAAJQAAABSCAYAAACyjf19AAAAAXNSR0IArs4c6QAAAARnQU1BAACxjwv8YQUAAAAJcEhZcwAAEnQAABJ0Ad5mH3gAAC0PSURBVHhe7b15nF1Xdef73fsMd6i6VXVrVFWpVJonS7ZlyZaH2HgCHNtgDA0NnU4cSLoTIITk8cjr90nSSfjQdKDTJN15JKFDG+MAHoEmBtvg2ZZsWZJtydY8ValKUs3zHc+w9/tjn1v3Vkmy7FCyZKLf53OkumfYZ+99fmettddaex/RsXSD5gIuYI4gZ++4gAv4RXCBUBcwp7hAqAuYU1wg1AXMKS4Q6gLmFBcIdQFziguEuoA5xQVCXcCc4gKhLmBOcR4SSkTVmrlpIaa30x07MzRazN540+tL5xlU3nv277falbOvmb0xo54lnFzvU2xSRX+fvj1nG+K8Cr0IjalMqTMEpk9PVUURdXh0TGDO1TM7cnbHVjyjCpxyZwRdUR+i+wKombs1iFn3Ph1Od9rMulWSuPJ/c0zMqrNGVJxjjpt97yzOL0IBCIFSmlzRR3shQvmgAyAEgqjTLLSwQdhI2yaecJFSRt1X7lSmCRXRVJvjSkW/hdneLkJVJrIQAiGhTP63CoFSiulXSAjkGSqjFPi+j+95EHhRn6ioLjbggLDBtYm5FrYlEWcoc65x3hAqVIrQC1CBj7QkTW2ttKQbqEtVkUi6xGIWQihAoLUgl/fJZPJMZPIMDPUzPjqOkBa240SdWH7DFRqhNVJKpCXQCjQav1hEBQFuIhkR8VRdUX4gYRAQeB7x6qQhogavGBL6ITJm4VhnVntaa4IwJCwExKriSMuUHyqN5wfEbKuCBOU6FbMZnHichsYGWpubqK+tIZFwkNEtg0CTLwTkckVGMxkG+vuZmphAa4XlxrHfQt3mAucFoXzPIxaPU1OVpCaZoL4+xRVXXcHqVctpb2sjnU5TVZ3EsiwAVKgYGx9nYHCIY8f62Lb9Vfbs2sPg8CiT2SK+H2LbZTtHKU1zUz3Lli3Cce3p+44ND3Os9xiDIxM4buJNCCUIg4CquEtHeyutnW3ISD3nJj0G+kc5PnQC3/ONxDqNUNDaFBePOSxq66C+JY0d1SeTyXGg+xjjQyNYQiCkRGkItSLuWDTUJOjoXMAll6xlw7qLWbRoIbW1NVgRAYtFj4mJCYZHRunp6WXb9p10HT7C0NAoo1M5svkijiVPW7e5wjknlFIaPzvFuvVrue3W9/Hem29k5Yqls087I/YeOMSDD/2ARx55iq7ufpLV8WlJpbXiox++nf/+1T+boQL6BwZ58KGH+dM/+QtqGhe8SWcL8lNT3PCeq/n617/M/PbWGUdf2/E6f/alr7H1lT1YlsCqkAZG5SqEloShoqoqzpVXrON/f/OvcewyuXuPn+C79z3MX//1d5C2wnFs/NAY2AsXNPPHX/gcv3LNldTX101fcyaMjo2z+cUt3PvdB3n0mW3UJuPYFtGLc9rG/kJ4Z+TgaRD4IWMD4/zB//V7/LevfonfvOvfsWTxQtPespkS/aFmbaUTFGhYumghf/C5T/OFP/wdVq9ZzHi2gNKmgHxmitHhESanMlF5poymxgZWrVpN5+LlKKWNBJkFgUaFioaWRpatXErrvOboSKlOmubmJm6+8TrCvI8K1MzrtSgJObycT0OqgVvffwNSyhmN9Ioew0MjqJgDlkXeC0jVVPHRO27k+9/+e2668Trq6mpO0xen3upqU9x84/V88QufY15jlZGqp2rkHOKcEkqjUOEkl11yEYsWdpKqrsJxpLGeo4dgUPoxeysd1jiOTW1Niuuvu4Zf+/iHqUpYaKXQWqOVYHxskq7uo9EFptmWJWluamDtxWvIBwGhnkkGoseXD3yaW5pZsrhzWu1W1qG6uorly5ciRLZi4FCqnyGdRqMokq6LcdHqVZEBXj5vcHiMnz61CVsH6DAklXS56bqNfO7Tv01nRxvJZBwpS2VWXGv8HqfoG4GUkkQiRlNjAyuXLsR2JOoUbZxLWLX1bX8+e+c7AS1AqYBCZozf+u1P0dHRjm1bBKFiKpPlaM8xdu3ey0svb+PZZzfz5LObePb5l9ix43V6eo+TyxVwHZeqquQMEZ5MJkkkEoyMjHBwbxcaTYgkVpWkvbWJdZesnVEP3w8YGxvn2Wc3Y1v2DHVVQj5X4NK1q7j5xmtZtLCz8naAwJKSUIXc+9APEcLCkiVVFkkDAVqB0Jo1a1byiU98hHg8Nl3vqUyG7a/u5J/uvY9EIoaXz3LlFZfybz/6Ia6+8gqkLI1GBbl8ga6jvTz3wkv8+Kc/52ePP8lTTz7H009tYtPmbezdf4CBgSE8LyAWc4nHY0xNZXj+hc0c7x8iCBVCCkS5AXOKc0YohEapkEImz4fu/CA1tTWcONHHK6++znPPv8Tzz7/M0y+8xLPPvchzm15i04vb2brtNXbv2cuBQ90c7TnK5MQYyWQVjQ31poMESCmIx1yqkkke+fHP0Wik6xCEAQ6SW95/I1JWGs6CQqHIjx78P9iuUyGBDLSAYmaCa6+5nPe+7yYa0nWGCNMSxkg6pTSPPf08uWwBpbSx1Socor6vqK1NceUV67ntlptLTjMAjh3v4/nnX+SF5zaTqE5io7nzjlu54wO/SlUyOV3GVCbLtm3b+dH/+QmPPP4Mj/3saV56cQtbt77G1ld28tqO3Rw4fJhDXUfpPdrDwOAwYxMT9PUN8PgTzzM2PglaI8+iYjpnhBKY4XtQ1CxfvpThoRGefOZ5vnPvfXz/uw+zdetODnQfY3h0Aq/oI4VACknRC+jtG2bHjlfYs2snQai4fMN6HMdBCAkIHMclkUjwg4f/mWLo49iS/ESGQtbjI//mNmLxWGTDGLVQLHg88MAPEZaNnEUoBIT+JO+9+QZuvvFGXNcBoQlDBRUjuiAIONZ1lCNHjpHPFyNJZzzxIMnlPBYvWsDNN1zNukvXlqUXgt279/Ho409xqLsf23FY0NHGB29/P5evX1euBII9+/bzj9/6Nt/69j/RN5TFFgI3niSWTOLG4whLkskWONh1nO1bt7L5pa3s3L2Pru5etr2yCylNH55NnN3SzwDbtkm3NPCV//I/+J3/+EW+8Y17OdIzQLqlmXRLPemaJNUJF9c1qqi0VSdc0ul5jI7leeiB7/HGnn3kC4VpI9eyJHW11Vy+8WKqquMEKkCLkEIxw4GDh/E8L6qBxnVsGhvTLF2xBDcWm3Z6ViLd3EFTSxvVVYnpfRNTmYpywHUc1q+7mJiIERbDaG+FWikW6Wybx6pVK6IdZQl1qOsoW1/dQU1Nkqmcz7IVy2id11K+FmP3vLh5K7sP9OGm2qmtimPbEiEUWiiQpt22LamtipFuaMJyEhw40MujT75IPBY7o+N0LnBOCVVCTUMN6ZY0qbpqXGeWhDglopGOFScfVLNt63Zy2dyMM6S0WLi4ExmLEyrAcciEms0vbSGfL8w4N5lIcMP1V2PHE/hh2WjVWjOZK7JyxQo62tsqrpA8/dSz9PYem95j2TYdizqJxwG8CvupRNAsLc0pOua3R78FIBkZHedYTxdjgz3T18RjMRzHLpNOm8cUhD4oH1eUPOSmHKHNNhtSCmIxi5qkW3H+2cV5QSjLtrAdI4XeeqhAIywLhMW+fQcjCVW61njFmxoasIWFDhWWZVHIF3n4kSeZmsrOKMl1XTZcto6kZaH9oHxAQ5AtsKSzg3nzmiov4Yc/foJdew5SKBopZVsWnR0dxONVFd1qRmAqVFTV1TOvrZ2GhnRFKYLunl6O9g4SqMR0/QuFIv50PaIRL7Bi+TLaW2sJi2MzpV+kEk8FKQTW9Ojw7OO8INSZoLVxgBp1VO4cIUygdmhohKCSCNExNxZDIkBrbClQgcf+PXsZGh7B8/zoTI3r2qxYsYKEY4MqqStzDD9DZ0crjQ2NgKlHNl/gwP5ddHd3ReQ0tlhDfR0dne0kq6uMjRWh6Ad0LOhkfkcH8Vh5dAdwYP9BunuOYztJBBC3LbqO9jI0MjKLKJq1a1fzvptv4OK1a8jnCuSnsnief0o1fa5wHhFKoHUpphXiFQp4hQxeIU8YBCAgCEO8QjHan8MvFgiKHoVC/vT+FQ1oEQVfQReKHD7cxVSm5OQEy7Jpb51HY1MdTsw2ZQnjOwJFe1sr6XQtRMb34OAwQXGCvuO9DA0NGWkpNDHXZe3a5TQ0pPH9EDCOxEKxyIplS1gwv1JtGpfF3r376O05ihM3Mch4zObwocN0dfWQzeYiQhnCtLe2ctutt3LXXb/B1VduYMWypTQ3NWBJhVfI4hWLeEE4be6fC5wnhIriVkoTahC2gyslSSekOubQ1FBPZ2cb81oaqEnGqI5B0lEkbUnSsaIAa6njZ3VnyfGnBQgJTjXbX9nJ4NDw9ClSSqqqE6y+aBl19TUEYWBckUKQSDZQn26cHr57nseRI10UvYDurqMcP36i4mawcuUy6tNpAj8sS5dcnqWLFtDaWjK0TV1Hxyc4fOgIQ4ODxqELSEtSyEyxf98BDhw6HHm2yxKtY347v/nrH+P+736DL3/lP/GxD9/K0s5G4laABJS0UKFChQrzjpUl3DuB84JQWmiy2RzjuQwt7Y188fc/ybe+/T95/OePs2XLUzz/9I947Eff47mf/5BtW59g0+bnePTxn3DPvf/An/znL3DzzTdSU5OaXexJsCxJdSrO5i1bGRgYivaWVejq1auorW/ED0GHRvtdf8NGmlvS02QtFAq89toO8vk4u/f3crirx5QRGc4LOztI16QgLKtUGGdBRwtNTZEdpgEke/fuY2QkD5RHj0ILkjUNPP3Cyzz0w5+Qyxejx6SidBWzxeMxrrnqCr7wh5/l/vu/z8M/fIA///M/4kO3XI+fKTA6ME4ukydUKoonlgY7p3jp5hDnnFBaCDKj/axbu5Q/+38+x99//St84qN3snHDZSzs7KChIU1tbQ01qRS1NTXU1tTS3NTI4oUL2HDZJdx+6/v46Ec+RLrOqKQ3gxACyxIc2b+Xvr4+8gVvBqFWrFhOY6oaXSwSBpogF3LpJWuorS2Vrclkczy3aQvYkqGBEY719JPPF6NiNB0d80nXOUAWpRWBH1I/r5OmpmaSiZL9ZLBp0xYGRodx4q4pPRqQWJZFJlvkmWc38//93TcZn5iKcrBKklgghMSxbRLxOA31aVavWsGHPnALX/zDz3D//f+Lr33tj7nuPZeDgMxk5Qi40i6be5wjQpm3RIUB2fERbrrxOj511yf42J0f4Ip1F9Pa2kxtTQp3OrdpRl8ipcR1XVKpapoaG2ib14LjOLNvclpkcyHd3ccZGo7UXvSMFy3spK4mDqpgYiWqyOIli6iurgYgDBWTE5PseOVVAhXg+T4jwyMMD49EJWtqUtXMa2unNt1IGCq8UHPppRfT3NSEFQWElVZMZXNs2/YqIyOj2I49QzWJKPGvt2+A+37wKP/vf/4qTz39AgODIwSBmkmIqD+SiQTNTY0sW7KIa6/dyJ133srvf/a3+Q93fZyli+aTGc+gKgYKZwvnyFMuzBsnBQtam/jMp/8DN9/0HtraWmYEQHP5PINDwxzt7uXwkW4OH+mi+2gPx/v6GRkdYXJqikKxCAhsx6I8Ohb4fsDru/awddvrZLJZnMi/JYQgCDRNTfUsWbyABR3zS5fgui6vvvoK+w8fpeCBLeDTn/kk89tbcRybXL7A3n0HuPtb3yGerCIINK2t87joouV0zG8DNFJadPcc43D3cU70j6BCxZ0ffD9XblxPfboOEHheQNfRXu65+/uMjk3ixlxDESGmU3ulgCBUjI5NsXf3fiZGxzh+rJ/RsTF830dKC8dxTKbqtKvFSDHLktSkqli0cAELOtqwLDhy+CjFwNiGb9018/ZxjggFfuATT8b4j5/6dT5w+y00NtRHR4x7YHR0nFdffY3nn3+JZ557kaee28zmzVt4eesrvLJjF3v2HeTw4W6OHTtBvlCgpamBWMyojjcjFICwBH6xwJJFnVx88UVR3M34knp6+zjY1Uff4DjNTfV8/rO/NU2EkdExXt76Go//7FniqSShgpraGhYv7mDtmlXTD3RiYoLDR3p4Y9cBnDDgNz/5CVavWk4yygzNZrM8t+lFnnz6RQqeh+Vap1BEJujsOjaOY7Fn935eeGELe/YdZGR8nMmJKSYmJigUioRKIQTYthWFn8qFpdNplixZRCaXYe++/RSLpbDQ2SHVOVJ5IIICzVWa3/rkr0cPzEAD2WyBnz76Mz7/+c/zR1/8U/7hH+/jJ0+8wOaXX2Pzy6/x6JOb+M73f8xf/dU3+ZM//jJ/9qWvcaJ/8C13kuvY7N93iP37j5DLF2ZctnBhJ52t86ixBJevX4Ubc6ZV9Pj4JIe7uhGxJAiJG3MYHhli//4DlcXT1NRES0M9opjDdgKWLVtEqro8aMjlcjz1xDNM+QEm4+3NjGTj2EzVp6lrbuBo3yD/654H+exn/ogP3P4xvvif/pTv3f8wO97Yy9jYFH4khaA0uoWGhnp+7/d+h7oqjQ7ys28wpzgnhPKDkMaWVq697maqkonpQC0I8vki+w4c4C//8suMTPqk57WSrq+hJhEn5saIuXFqknHSNUlq6lMka9PU16awZwd13xTmXv39Axzp6o72GfuitbWFttYUqZqA9esvnWGbjYyMsnv3XhJxk5vkOBaD/b3s270j4oTpzqamRpoaa0kkFctXX0RTQwOuU87OzGQy/Oyxx8ArRvtPlk8nw+RVxV2LdE11FO9sZ/uuI3z9b+7mN37ts3zi136HHz3yU/L5fElYgtBYlqC+tob3vOdmGlva8GclAc4lzgmhAi+kKlnDitUrI5vJdBYIxkbHefGlrQwMB4TKxopylCxpnJPGQSmM70kKQmlRU5M6ZR7Tm8KNcWJ4hEOHjlTsVLS2NNPc3EhVVZxVK1dEMTXjhDzRP8gbuw8Tj8eQQiIQhIFgbKxAV08PoTLtqKtJUVffSCo9j6uvWk9VVXLabpmcnOLgoW4ymcAInzPxaBZKI1XpCCxbIlCEyiPr5dh3cD9/+zd/zT8/+njkaTeST0R21SWXXExNso6gMDOqMJd4m09hbqDCkLjj0tI8Mz4GkM3l6T56DGUlEGKmOjATGI3fCkCHGlsLVixfQtxEZd8E5skZdaCJxV2OHj3G9m07K87RVFdX0dTcQvv8hSxbung673sqk6W/b5CxkRETcywFY4XLVC5k/8FDhKEJ27iuS+u8Zi65ZC1XbLiMmOtON2NkbIydu/ag3SRIaZJT30zjQYUEmynJtADXsnBjLk4iRqA1Bw71ct8DP+bYDIeruaaxqYGY457V0d45IRRKYyFwp9VJuaO0LuUaVfZdZY9Hb50GQkVC2lx15RUVmZtluI4TxfIqdkZluo7F8MAge/fsY2JiYjrX2rYtOuYvYP36y2ltbYkS7gSjo2MmzBKWpGlUnGWTKxbZu2+/IVREtLbWZn7l6g2sWLFiOocKYHBgiBdf3o4diyNKc6BmQSlFqMLpnPiTUZlvaWwloUFaDlasjtd27GF8fHLGFURTtX45c8qFIAhDioXIQKxIvYjFXJoa6xGBFzXedJ7ApNAKbSRTEITE4w7Lls1n48YNVFeVMxtBIKUgnU7hSGFmSFYQ0aRga0AxMTXJvkNHZgRYly5ZxI03XEsiHkNEmZXDw8P09w8jrPiMVBDbscjls+x8bTdhUA4sNzU1su7StczvaMWyTSpKEPj0Hj/Bli2vkHAr3RxM109rE34xIzZNEHomn0uX2mA20xemDUbuCrTSoANaW5uIJ06W2KNjoxQ977REngucvZLfDFJQ9D1GRsZmH6GurpZL163B1iOgPUCisdDIqLqSzFSRsaExLrloBX/7ja9RW5NCCiNJSrAsi47OBcQTOspPKiHKHdICbJfJbMDePQdmZDK0z29n3bpLK66Bru4eDnUdIV5dck0Y2LZkaiLD5udfMRkPEVFbWpq57LJLqa9NYQlT74GhEbqOdFOYHMOyTj1/LwwVixe0s+GSVcxvqWNsoI/xsSy+F6J02ZtuppmbNmsh0RqCQg4ve4Lf/Pf/hoUL5lf0h3kBDh08Qt7PYcfLA4S5xjnxQ0kpCZSH0iF3fvC2GarNcWzSdWlSqVr27Xmdgb4TFLJFCtkMhewIhewE11y9gU//7if55Cf/HUsWd5pJnTOejpFQdbW1PLNpC30Dw2htDNrScaKUYq0DwsDjtl99L7btQOT/caZn8BqR9uPHnubRJ5/HEqbscqXNJFChQq6/6Vrq03W4jotlWbiua86N7rt3336eenoTr+/pIpGIn0QopRRTo2Pcdde/5a7f+Di333YLV19zFQvaW8kX8owMHmVydIhCNh9tOQrZLIXsGGFYZOHixfz+5z7Dhz54O81NjdPqWilNZirPV7/6FXqP9WHb7llzbp6TiZ4aCPwCC+c38r3vfYf5rfOMnRGJ/SAI6e09wfbt2znS1UsmU8CyLFKpGPXpNIsWL2TJksW0tDRhSYvxiUnCMCSVqiYRj1eoBsl3vvcg99zzILt37SNeXUpiMwttaK3RgUd7cw0/+MEDzJvXHBnhpS4xhBqfmORLX/7v3H3vg6RSqUgNlh+IV/CxlOSvvv7HvO+9N9BQX3bSluoB8N37HuLvvnkPhw4dI56YKemIpuOPDwzw1a/+BR/+yO00NdQzOTVFf/8gx0/0M9B/gvHxCTKZIrlcOes0kXBI19exoLOTtRetoq2tBdsqS6Hx8Qke+enP+dJf/hWTk1libnxG/ecS50RCCSAMfXzfQ9o2K5Yto7qqKnprTLJaOl3HsuXLWLVqBWvWrGT9+ku44ooNbNy4gcWLOqmtMfG1/sER/un+hzja00tDOk19fXqG9HAcm9d37Gbf/oPEEiVCGWehEIKg6OMXPa65ZiPNzU0V3vZSTQVHunt46skX2L/3ELFkibDlB6IUICw6OppZe9FqamtPznzIZHM89tgTPPX0c9hO7NQSQmsK2TzXXX81q1Ysoz5dSzIRp7mpiSWLF7J61SouWnMRa9asZO3aVaxbt5Z169Zy+eWXcfmGy1izeiW1tTUzJOj4+AQvvbydv//7u+kbngQhIxV8dnD2Sj4DbDtGzoN7v/sAzz7/Iv0DQ1GWY7kzXMemuamBRQs7WNDRTkN9eno2STaX58Chbv75kZ/zP79xN9++5/vs3LnLJKVpE9udmJjkRP8A+UIO2y7ZWNok9WMMfKSDHzps2bKNzPTMYmYQ5siRboZGxhG2G40fZpLBsiXShZdf2cHE5FTFkXJbjh/vo7e3j2wmN73AxWwIwIklONLdE809zM+4l+PYJvjc0syihQumt9Z5LVRXV80oKVSKoaERNr34Mvc98DDbtr0KgY9zupvPEc6JhAJtJhsKyOc93ti1m/r6OlpamnFsJ5o3Z6Lu5mzQSqGUxvN8stkce/Yd5N5/epC//K9/C9Li+NFj1NRW09beSl26lkw2x9atr/Df/sffsXP3fhw3ZsoSJhvTFC1AgrYUoyPDXHnl5dTW1hIEIb4f4PsBhWKRH/7wEba/upNcFAebLVuEMKsxHTzaxy03v4d5zU2ESuEHpgzP83nuhZd45vmX6RsYxY1VZhdUlgOxRJz9hw4jtKa5qZFkMomqHKVGzt3Z0Gi0UvhBSL5QYHh4hJ898Qx33/NdnvjZz6lrao0iEmcX58SGKnWOFqC1IPBDLDXFVRvX8dGPfZwrr7yCdF0dVckElmXh+wHZXI7xiUne2PkGP3nsCV7e8gr9/SMI18W2bbQOCYsev3L1Bm5473Uc7erh4QceJB9YSDsyjivuXflAw1CRyea59X3XsX79GtLpepRSSCnoOzHADx76KX0DwzjJWJQNMFPlgfGfFb0iG9dfzMaN62mPFtTQaHJTGe6/7ycc6urFidsn2WCVKI3iVLFIPOaweMVi7rjlZtZevIbOhZ00NTRQlYifdLnvB4xPTNLV08PmTS/yg4ce4FDPIMpK4kqQwp7h7jhbOKeEMr0iCbVC+QXisTh1tWnqUlW4ToLa+mps16ZY9JmayuDnp5iaCpnKTZHLm2xEyzY5U1ooQt8nHouTrEpRCHyyEyNIOXs28GxiGd+PH4SkqpPEYjHjgoieeUEF5Cam0EphRUsEaaFPOW1JKYUbs4nHEziWC9rQL7Q0U6MThEE4HS453epypQXSQj9AK40Ti5GqqyVlSxJxh6qaamrr0qRrq5G2kXSZbI7x0TEmxybJ5fOMFXymxkYJwhBpOdiyFHGoJPLZeezniFCVKDfQ90MCLwAVABaxpIuQgiAIjY8n9AAXJ+5E6yJVXm/ePj8wWZLCksRc6xRz+E/foUGoCIMQFVYcswWubb/lqUihUoR+WGEPVpZh7L9TSbhTwcz2UXiBAr8IOkTaNk48QVXcNdPIgELRo5AvEHpeFI+J4ToOliyHqUAjtIzuq6P+Em/aH/8SnAeEqsTJjSuFCk5lN5yM2Q9q9u93Aie34WT8y+ul9amXHUJg7FJtcrtMzLKEqA9LBNJmn5G0lXbVqQp+ezj7Vtrbgj6pUaczQk+N2efN/v1O4OQ2nIx/eb1E5Fg9aRMCoUsrAiuUDNFCRcFnC6GlMdyn61ZJ/LdS57eG84xQF/CLQSC0RCgLK7SQuqzypLIQyopsP0MgoSMH75nTHd4yzjOVdwFvHyalx1OKbKAhNB5yERbROsS2wLEEBR2iQwmWBZbEFZLq6cHK3I3+3jFCmbegpONLotcISBM1fyu2xwWUoDRkfbMicrXrMT8Ny5oc2moETVUWNgGurYk7ZtlrTwsKBRgpaIazIYeGArb3apJOHDmHff6OECpE46NZVGORLSjGi5pAC9zI6y20jrIJuECoM8BXGl8pHKFZ2GixotlmUV3AwjrFgjpJc7WiLmFhobAtiWMZFacRFAPNpC8Yz2sOj8KThy2e2OMRamvObJ93hFC+1hTR/O7lDr6n2D8EB8Y04xmzaJdjRaO4s16Tdze0BqVDahJwUYvFTSsUV3XYLExDlaOMr4woJ0srlDbT76UQoHyTM2U7ICV532H3YJKP3zuMr2xsUXJp/GJ4R0IvSoNlCf7iNoePXhJjZbOFFyiOjHr4ygatUZFheLLf6AJKCJVmXlXIbasc/uj99Vzb6VHrBKhQUQwFHhZ5ZVNQNgVf4/kKXzuEMoHUPkpYaKXRoQIFOU/x7dcDUBbWWx5JvzneEUKFCApaEfgBKxptLmrRbFwI1y2L40rNnp4sY3kJ0sKxL1DqdMiGcOkChw+sdWmrCRmaDDk2AXuGbV7pd3j5qGBTl2Z7r8W2Y5LX+uHIuCYXQH08RtzysUWIRGFZkiIx/vfWKVD2nGUgnH2VJ7RZ5kELXF3kpmVxPrbO4soFCkv7jHgOB4ZMRzy5y2PX8QCZTJJyS3lppeoZmlV6fkvHzK5fThvMWECmbaFWxBxBjROSwEM5LqG28JTAD6PVa6Y94BqBwBZQF9dc0uDxf/9qkvlVAVKF+Nrm0GSMW/5hHEE8+qzIL95374iEEgIkkmIAI9mQ4xMBXqhY1GDTmvRprpZ01guWNkk6GiwSbshk3idTNANaWco8ESblxCyKXPL7mn9LnfjLBvMamX+l0HgBTORhPAdjRZvJvCRThFxRkfEUY0XNVDbA9wV+ICn4gvFcSPfxArevjdOYBEsYFXlg3OFHr5u5XNEnZ35hvAOEKj16iWVL8oHmxKSibwK8UNJUrUg5mpZqzeIGwfJmQVt1SF1SUpsU2BIKniLrKUJtlvcrd7Jx5Jk/K2Jnv0SY3SIpTB677QhsKVHmWw8kHMX8Grio3eayVkFd0jKZHNGXs0amfO7amGBeSmOJkIyn2dlv8bN9xsv+LiIUZtgaGX1SSrS26J+AHX0hbsylNmZGKQkRkHYDFjfYbFjgsKoF6lzzrRYtQNgWfqAJlHFF6IpPgmlxdheBODeIXhqUIZaIPvKmNaHWhGiSMU1DUrOqUXDDEouPrBXcscYilbQ5NqE4Ma5AShLxgE9dVUVzlUIQMpwVPHdIsOWYWRTkXWWUU3rTokoLYWa9eqHFE/sD8oFFbZVDOimISYUQgoT0aEsGXNYO1y93ubwzTlNS0DXsMVXU+FqgpEJapblwJpI+N91y/kCjUVKjtQQt8bXGCzVCKaRV4I7VDr9xmeSuy20+sNpiSSpLOhZgOQ47+xQ7Tni4Dlzb7nHrRQnSsQAkdE263PcqdGcCHMGcSaizb5RjcnyMN9xkAZWdmMZX4iuYl/K4Y43DJzbEWFbnE3pB1J0iWi4RwjAko1LsH5PsOO6zrcvntZ6Q43kXbQUkBcSkQFgyut+7G1pr/FAzhYbAJi58Vs3TXL3YYv0Ch8tbHWqsLI7UOBbELIXSmpGwmn/c4vHTvZrDI4KEq/jkuoDfvULQnNRkdIzHDjl89qEisRhY2qz+Mhc26DtCqDPBUwKLgIYqwdo2iztWC65fKKhxi9NpwBKFQoJ0yHowXtCM5QSDWYc9Y4IjwwE9Iz6HhwKOT5jzEIqENLEsow5Lqjcit2ZarUCUHoxZltAc0ahoOH1y/LS8w5xe/l0ut/T/SRfP+NJo6RytNVkflJKgAmqcgEX1guXz4yyq0bTVQWca2mo1ta4mHZPYumgUorTIBYJXTsD3d0q2HQ8YzwiKnqC+SvO3dzqsb/FIOQFHxm3uf8Pha88F1MfsqKqmT35RnBeEgihrUiniLixrElzaDO9fobm4zSadAKF9dBgSTq8VCUI6KBmnP1NkeCJkICvonYDuMc1gXjKagYHxgP4pxVQxWrS1wt3iCElMltdLMJnhUdnRXyVpeipClc4vkyMiYsW5lQSOLiNUUFRETDTHYzJkXlVIfY1LU0rSUq2ZXw2dddBaC/NqmbY1HamIllFAoihoh64xyQtdAU8fVLzeb5PxjTaIS8XKBs09/z5FtZVD2oInDkq+uQW290DMAqT5RNxc4LwhFJi+9bWmGGpcHfLelTbXLbZY1y5ZVK+osz3CMJp2jYi+/CRRYdHMJBExCkoyUVScmFL0jwu6RhSHxjQDU5DzBOO+JO9p8kWNCsynVSeLykThtVlVzyDqlukpSRqpDR8DzXRe+HRcW0fnlnpzulejg0GAa0MiJojZYDtmBeOkA1WOJp1QLK5TLG4QtNfB/AabpiqbhFCosIhtC/O5NmVar5B4oc2xyZA9wxabj8ILhwMOD2qScRcpzOClsUpzyzLFVz6QRHl5+j2Hu7dL7n4pRISgpGGmYG5CX+cXoaL3XkQTMTMFRWO1z7VLHO5YE2ddq0+t5eHa5ntKghCr9FFBxzUfUQzNQNoiNBab4xJIm6k89I0rDo9J+iYUQ1MhI1MhvaMhh0c0yomBCgmkJNSSMIBAgbYh1KC0xtGaGIJMCCbZqCRlDG+krbGkwEZgYXxvZqYxWPk8DUlobbSZl9Z01rm01gmak4p5KUFTShKLCWJ+1qxbYNsoJGFQbo8QEGiLYijIeZru0RhPHPb48e6Q/cMC27VIWZYZEUfqc2WL5PPXWnx4TUDo+Tx60OHubbD5SEhV3GR3CjV3TuHziFBmNKME2FFOD1HifyGAmCu5aRF87IoYV7RL6p08giLadgmKZr0jCxNWKMHHrO4ye78GozqtOJ6OMVzUTOXM8ZGCYiirGctKRjOaXFGQCTSZgpkOdToIATVV0JCM0ZDQ1CU0qbigzlXUVrnUJSEdl1Q5gDRrLYhigVALYxvOQinIq5DYBATYSMcmH1p0jUmeOqj5+lNZxr0YSRdidjlhziTWCbKe5KYVkr+5w6LeyjEaJvmDH+V46kBIMmZWhBGq8tt+vzgVziNCGZT8VQiFUEbdKG0WUUpaYDtwebvFNYvg8oWwvMUiVjQTNBVyxmyS8uy7k5uoEchofl6gNEoZkgVaoLRCh4pQmcB2aDum7DOMHC0JthBY0gzDLaGQgYeUxkErhDR23LQ9dfrZL5YtzUAkCAmRTIQJXjsuePJgkRe7PQamXDxfEEbzFy2M7WbKEyilaE0JPnKJ5A+ul1ja5r8+nuOB3Yr+nCTpiEjIWtOpwnOB845Q0zaHKK27Y2AmMho1lE5AOqlor4HVzTYbOgTLm2FeSpN0tbGFAn+GAX8qGEus3PySpJi9H2lN+9DeFrSe8e2YEnkkihALacXQKgTtz5CgAMKOM+XbHBkN2HnCY1OXpHvUYjCrGc8pglDi2qWPPM7sKxDkvJAbl1t8aqPF+lbJw68H3LMtS8+kDdg40+0pGYBzg/OQUGeG1ho/UAihaayyWNxi0VkdsGoerJonWZgWNLkKx8U8UF025IkeKNEDrtxX+ftsoERUMzoUSMtFqxAhFEJIlLaZ9CyOjQccHNUcHJEcGRd0DebZ0y8ohhaOJXGnvZCnf3TZQshNK23ev8pG+fCtrR49E2Z6mjNHmQWnwruSUCVoYYLH2UBBzqOjQXBxh80lbTZLawVt9YrGREitq0k40RI9hEgikmkjlUpGb4A9x4QSCGkZ0qAMkYVACwsL8EJN1tdkfItJ32ZwStI7FWdXX5GtPXkODimKgUNM+Di2/bZCS54fsqDRojklGclodg9qUo6MPOJzYy+dCu9SQhk7gWjKUGk2R6hCCkqRDxUuPpfNl1y1OMHaVpul9ZK2GnCtokmLVSG2DnGkmvYUBDPmqJVV1L8UQtpYdgLfyyG0T6AEARZaWniBS39ec3g44MAg7Dqh2dKdYXBSEloOVa5F3DYOAqErVfdbJ0NOKfJKYwmojmms0Jkx6+Vs4F1JKC3KNpbQFlpoQhkidWRLaLOoqtAhRS3RSJKOpi2luKxNcWm7xYI6aEtbzKtxqItFtpM/Cbq8Qq42jolTEssmiGRO2e6yMI5Xo84k0rbROs54wWO8AP1Tiu5Rzf4+xRs9eXaNwJTvEiKRAhKWWYlOYwLdJjKpESiU1NPtemtkiOboRRkZAo2OXB2nmkY/V3hXEspAR5Iq+lVKIa405HXJhwRSYkZaUpFyJQlH4IY+CRmSrrNZ3CiiBH+buoSkOgYJO6TagSpXYM+ail4y2rWQ+EqQKwZkfMgFFqNZGMmEjGYVw5OKA4MBORJ4SPK+Iu8rtKfIh0YBE33Lzz57z/kdw7uYUG8fKrJbKA2vgxCpFW7cojEFMSvEsWxijiRmgWNDTELMNg/8lBAQKoEXKIoKfCXIepqipwh9Rc7TDE8plLSjTEHjZXeErlgR5pcH/6oIVYaORtlRgl4k4Xw/JNAmB97YzyJKi5kpDU0Js/eAxqw9hQBHgDv9WftoP+Xv6s3l5MrzCf8qCTVj0mklLUQ5OGx+lmhT+r90riFk2Rlozjm9aVIijynDXPfL2e1nzyFxHsMY7GVyEJFMaDW9Fro5XvZq6+kvOKjpTQuzmd/mWLmM0la6l4k+Vt7zlxH/KglloCs2Q4LyaK60v4zyQvNMS7eZxCyRcLaYKuVYlUn2y4x/xYQ6E04m1QWcGRcI9aa4QKi3iwuEuoA5xf8PRxF3Uy/j+JwAAAAASUVORK5CYII=;" vertex="1" parent="1">
          <mxGeometry x="143" y="160" width="144.39" height="80" as="geometry" />
        </mxCell>
        <mxCell id="0PEOZsDTC55XXhyj8gNq-19" value="" style="html=1;whiteSpace=wrap;strokeColor=none;fillColor=#0079D6;labelPosition=center;verticalLabelPosition=middle;verticalAlign=top;align=center;fontSize=12;outlineConnect=0;spacingTop=-6;fontColor=#FFFFFF;sketch=0;shape=mxgraph.sitemap.cloud;" vertex="1" parent="1">
          <mxGeometry x="136" y="635" width="645" height="398" as="geometry" />
        </mxCell>
        <mxCell id="0PEOZsDTC55XXhyj8gNq-21" value="" style="edgeStyle=none;curved=1;rounded=0;orthogonalLoop=1;jettySize=auto;html=1;fontSize=12;startSize=8;endSize=8;dashed=1;flowAnimation=1;" edge="1" parent="1" source="0PEOZsDTC55XXhyj8gNq-22" target="0PEOZsDTC55XXhyj8gNq-32">
          <mxGeometry relative="1" as="geometry">
            <mxPoint x="587.5" y="897.51" as="targetPoint" />
          </mxGeometry>
        </mxCell>
        <mxCell id="0PEOZsDTC55XXhyj8gNq-22" value="" style="verticalLabelPosition=bottom;aspect=fixed;html=1;shape=mxgraph.salesforce.web;fillColorStyles=fillColor2,fillColor3,fillColor4;fillColor2=#032d60;fillColor3=#0d9dda;fillColor4=#ffffff;fillColor=none;strokeColor=none;" vertex="1" parent="1">
          <mxGeometry x="828" y="879.81" width="60" height="47.400000000000006" as="geometry" />
        </mxCell>
        <mxCell id="0PEOZsDTC55XXhyj8gNq-23" value="" style="edgeStyle=none;curved=1;rounded=0;orthogonalLoop=1;jettySize=auto;html=1;fontSize=12;startSize=8;endSize=8;" edge="1" parent="1" source="0PEOZsDTC55XXhyj8gNq-24" target="0PEOZsDTC55XXhyj8gNq-22">
          <mxGeometry relative="1" as="geometry" />
        </mxCell>
        <mxCell id="0PEOZsDTC55XXhyj8gNq-24" value="" style="image;aspect=fixed;perimeter=ellipsePerimeter;html=1;align=center;shadow=0;dashed=0;spacingTop=3;image=img/lib/active_directory/user.svg;" vertex="1" parent="1">
          <mxGeometry x="938" y="877.21" width="18.5" height="50" as="geometry" />
        </mxCell>
        <mxCell id="0PEOZsDTC55XXhyj8gNq-25" value="" style="edgeStyle=none;curved=1;rounded=0;orthogonalLoop=1;jettySize=auto;html=1;fontSize=12;startSize=8;endSize=8;dashed=1;exitX=0;exitY=0.5;exitDx=0;exitDy=0;exitPerimeter=0;entryX=1;entryY=0.5;entryDx=0;entryDy=0;entryPerimeter=0;flowAnimation=1;" edge="1" parent="1" source="0PEOZsDTC55XXhyj8gNq-32" target="0PEOZsDTC55XXhyj8gNq-33">
          <mxGeometry relative="1" as="geometry">
            <mxPoint x="526.5" y="896.1281766612643" as="sourcePoint" />
            <mxPoint x="435" y="895.7099756888168" as="targetPoint" />
          </mxGeometry>
        </mxCell>
        <mxCell id="0PEOZsDTC55XXhyj8gNq-31" value="" style="shape=image;verticalLabelPosition=bottom;labelBackgroundColor=default;verticalAlign=top;aspect=fixed;imageAspect=0;image=data:image/png,iVBORw0KGgoAAAANSUhEUgAAAJQAAABSCAYAAACyjf19AAAAAXNSR0IArs4c6QAAAARnQU1BAACxjwv8YQUAAAAJcEhZcwAAEnQAABJ0Ad5mH3gAAC0PSURBVHhe7b15nF1Xdef73fsMd6i6VXVrVFWpVJonS7ZlyZaH2HgCHNtgDA0NnU4cSLoTIITk8cjr90nSSfjQdKDTJN15JKFDG+MAHoEmBtvg2ZZsWZJtydY8ValKUs3zHc+w9/tjn1v3Vkmy7FCyZKLf53OkumfYZ+99fmettddaex/RsXSD5gIuYI4gZ++4gAv4RXCBUBcwp7hAqAuYU1wg1AXMKS4Q6gLmFBcIdQFziguEuoA5xQVCXcCc4gKhLmBOcR4SSkTVmrlpIaa30x07MzRazN540+tL5xlU3nv277falbOvmb0xo54lnFzvU2xSRX+fvj1nG+K8Cr0IjalMqTMEpk9PVUURdXh0TGDO1TM7cnbHVjyjCpxyZwRdUR+i+wKombs1iFn3Ph1Od9rMulWSuPJ/c0zMqrNGVJxjjpt97yzOL0IBCIFSmlzRR3shQvmgAyAEgqjTLLSwQdhI2yaecJFSRt1X7lSmCRXRVJvjSkW/hdneLkJVJrIQAiGhTP63CoFSiulXSAjkGSqjFPi+j+95EHhRn6ioLjbggLDBtYm5FrYlEWcoc65x3hAqVIrQC1CBj7QkTW2ttKQbqEtVkUi6xGIWQihAoLUgl/fJZPJMZPIMDPUzPjqOkBa240SdWH7DFRqhNVJKpCXQCjQav1hEBQFuIhkR8VRdUX4gYRAQeB7x6qQhogavGBL6ITJm4VhnVntaa4IwJCwExKriSMuUHyqN5wfEbKuCBOU6FbMZnHichsYGWpubqK+tIZFwkNEtg0CTLwTkckVGMxkG+vuZmphAa4XlxrHfQt3mAucFoXzPIxaPU1OVpCaZoL4+xRVXXcHqVctpb2sjnU5TVZ3EsiwAVKgYGx9nYHCIY8f62Lb9Vfbs2sPg8CiT2SK+H2LbZTtHKU1zUz3Lli3Cce3p+44ND3Os9xiDIxM4buJNCCUIg4CquEtHeyutnW3ISD3nJj0G+kc5PnQC3/ONxDqNUNDaFBePOSxq66C+JY0d1SeTyXGg+xjjQyNYQiCkRGkItSLuWDTUJOjoXMAll6xlw7qLWbRoIbW1NVgRAYtFj4mJCYZHRunp6WXb9p10HT7C0NAoo1M5svkijiVPW7e5wjknlFIaPzvFuvVrue3W9/Hem29k5Yqls087I/YeOMSDD/2ARx55iq7ufpLV8WlJpbXiox++nf/+1T+boQL6BwZ58KGH+dM/+QtqGhe8SWcL8lNT3PCeq/n617/M/PbWGUdf2/E6f/alr7H1lT1YlsCqkAZG5SqEloShoqoqzpVXrON/f/OvcewyuXuPn+C79z3MX//1d5C2wnFs/NAY2AsXNPPHX/gcv3LNldTX101fcyaMjo2z+cUt3PvdB3n0mW3UJuPYFtGLc9rG/kJ4Z+TgaRD4IWMD4/zB//V7/LevfonfvOvfsWTxQtPespkS/aFmbaUTFGhYumghf/C5T/OFP/wdVq9ZzHi2gNKmgHxmitHhESanMlF5poymxgZWrVpN5+LlKKWNBJkFgUaFioaWRpatXErrvOboSKlOmubmJm6+8TrCvI8K1MzrtSgJObycT0OqgVvffwNSyhmN9Ioew0MjqJgDlkXeC0jVVPHRO27k+9/+e2668Trq6mpO0xen3upqU9x84/V88QufY15jlZGqp2rkHOKcEkqjUOEkl11yEYsWdpKqrsJxpLGeo4dgUPoxeysd1jiOTW1Niuuvu4Zf+/iHqUpYaKXQWqOVYHxskq7uo9EFptmWJWluamDtxWvIBwGhnkkGoseXD3yaW5pZsrhzWu1W1qG6uorly5ciRLZi4FCqnyGdRqMokq6LcdHqVZEBXj5vcHiMnz61CVsH6DAklXS56bqNfO7Tv01nRxvJZBwpS2VWXGv8HqfoG4GUkkQiRlNjAyuXLsR2JOoUbZxLWLX1bX8+e+c7AS1AqYBCZozf+u1P0dHRjm1bBKFiKpPlaM8xdu3ey0svb+PZZzfz5LObePb5l9ix43V6eo+TyxVwHZeqquQMEZ5MJkkkEoyMjHBwbxcaTYgkVpWkvbWJdZesnVEP3w8YGxvn2Wc3Y1v2DHVVQj5X4NK1q7j5xmtZtLCz8naAwJKSUIXc+9APEcLCkiVVFkkDAVqB0Jo1a1byiU98hHg8Nl3vqUyG7a/u5J/uvY9EIoaXz3LlFZfybz/6Ia6+8gqkLI1GBbl8ga6jvTz3wkv8+Kc/52ePP8lTTz7H009tYtPmbezdf4CBgSE8LyAWc4nHY0xNZXj+hc0c7x8iCBVCCkS5AXOKc0YohEapkEImz4fu/CA1tTWcONHHK6++znPPv8Tzz7/M0y+8xLPPvchzm15i04vb2brtNXbv2cuBQ90c7TnK5MQYyWQVjQ31poMESCmIx1yqkkke+fHP0Wik6xCEAQ6SW95/I1JWGs6CQqHIjx78P9iuUyGBDLSAYmaCa6+5nPe+7yYa0nWGCNMSxkg6pTSPPf08uWwBpbSx1Socor6vqK1NceUV67ntlptLTjMAjh3v4/nnX+SF5zaTqE5io7nzjlu54wO/SlUyOV3GVCbLtm3b+dH/+QmPPP4Mj/3saV56cQtbt77G1ld28tqO3Rw4fJhDXUfpPdrDwOAwYxMT9PUN8PgTzzM2PglaI8+iYjpnhBKY4XtQ1CxfvpThoRGefOZ5vnPvfXz/uw+zdetODnQfY3h0Aq/oI4VACknRC+jtG2bHjlfYs2snQai4fMN6HMdBCAkIHMclkUjwg4f/mWLo49iS/ESGQtbjI//mNmLxWGTDGLVQLHg88MAPEZaNnEUoBIT+JO+9+QZuvvFGXNcBoQlDBRUjuiAIONZ1lCNHjpHPFyNJZzzxIMnlPBYvWsDNN1zNukvXlqUXgt279/Ho409xqLsf23FY0NHGB29/P5evX1euBII9+/bzj9/6Nt/69j/RN5TFFgI3niSWTOLG4whLkskWONh1nO1bt7L5pa3s3L2Pru5etr2yCylNH55NnN3SzwDbtkm3NPCV//I/+J3/+EW+8Y17OdIzQLqlmXRLPemaJNUJF9c1qqi0VSdc0ul5jI7leeiB7/HGnn3kC4VpI9eyJHW11Vy+8WKqquMEKkCLkEIxw4GDh/E8L6qBxnVsGhvTLF2xBDcWm3Z6ViLd3EFTSxvVVYnpfRNTmYpywHUc1q+7mJiIERbDaG+FWikW6Wybx6pVK6IdZQl1qOsoW1/dQU1Nkqmcz7IVy2id11K+FmP3vLh5K7sP9OGm2qmtimPbEiEUWiiQpt22LamtipFuaMJyEhw40MujT75IPBY7o+N0LnBOCVVCTUMN6ZY0qbpqXGeWhDglopGOFScfVLNt63Zy2dyMM6S0WLi4ExmLEyrAcciEms0vbSGfL8w4N5lIcMP1V2PHE/hh2WjVWjOZK7JyxQo62tsqrpA8/dSz9PYem95j2TYdizqJxwG8CvupRNAsLc0pOua3R78FIBkZHedYTxdjgz3T18RjMRzHLpNOm8cUhD4oH1eUPOSmHKHNNhtSCmIxi5qkW3H+2cV5QSjLtrAdI4XeeqhAIywLhMW+fQcjCVW61njFmxoasIWFDhWWZVHIF3n4kSeZmsrOKMl1XTZcto6kZaH9oHxAQ5AtsKSzg3nzmiov4Yc/foJdew5SKBopZVsWnR0dxONVFd1qRmAqVFTV1TOvrZ2GhnRFKYLunl6O9g4SqMR0/QuFIv50PaIRL7Bi+TLaW2sJi2MzpV+kEk8FKQTW9Ojw7OO8INSZoLVxgBp1VO4cIUygdmhohKCSCNExNxZDIkBrbClQgcf+PXsZGh7B8/zoTI3r2qxYsYKEY4MqqStzDD9DZ0crjQ2NgKlHNl/gwP5ddHd3ReQ0tlhDfR0dne0kq6uMjRWh6Ad0LOhkfkcH8Vh5dAdwYP9BunuOYztJBBC3LbqO9jI0MjKLKJq1a1fzvptv4OK1a8jnCuSnsnief0o1fa5wHhFKoHUpphXiFQp4hQxeIU8YBCAgCEO8QjHan8MvFgiKHoVC/vT+FQ1oEQVfQReKHD7cxVSm5OQEy7Jpb51HY1MdTsw2ZQnjOwJFe1sr6XQtRMb34OAwQXGCvuO9DA0NGWkpNDHXZe3a5TQ0pPH9EDCOxEKxyIplS1gwv1JtGpfF3r376O05ihM3Mch4zObwocN0dfWQzeYiQhnCtLe2ctutt3LXXb/B1VduYMWypTQ3NWBJhVfI4hWLeEE4be6fC5wnhIriVkoTahC2gyslSSekOubQ1FBPZ2cb81oaqEnGqI5B0lEkbUnSsaIAa6njZ3VnyfGnBQgJTjXbX9nJ4NDw9ClSSqqqE6y+aBl19TUEYWBckUKQSDZQn26cHr57nseRI10UvYDurqMcP36i4mawcuUy6tNpAj8sS5dcnqWLFtDaWjK0TV1Hxyc4fOgIQ4ODxqELSEtSyEyxf98BDhw6HHm2yxKtY347v/nrH+P+736DL3/lP/GxD9/K0s5G4laABJS0UKFChQrzjpUl3DuB84JQWmiy2RzjuQwt7Y188fc/ybe+/T95/OePs2XLUzz/9I947Eff47mf/5BtW59g0+bnePTxn3DPvf/An/znL3DzzTdSU5OaXexJsCxJdSrO5i1bGRgYivaWVejq1auorW/ED0GHRvtdf8NGmlvS02QtFAq89toO8vk4u/f3crirx5QRGc4LOztI16QgLKtUGGdBRwtNTZEdpgEke/fuY2QkD5RHj0ILkjUNPP3Cyzz0w5+Qyxejx6SidBWzxeMxrrnqCr7wh5/l/vu/z8M/fIA///M/4kO3XI+fKTA6ME4ukydUKoonlgY7p3jp5hDnnFBaCDKj/axbu5Q/+38+x99//St84qN3snHDZSzs7KChIU1tbQ01qRS1NTXU1tTS3NTI4oUL2HDZJdx+6/v46Ec+RLrOqKQ3gxACyxIc2b+Xvr4+8gVvBqFWrFhOY6oaXSwSBpogF3LpJWuorS2Vrclkczy3aQvYkqGBEY719JPPF6NiNB0d80nXOUAWpRWBH1I/r5OmpmaSiZL9ZLBp0xYGRodx4q4pPRqQWJZFJlvkmWc38//93TcZn5iKcrBKklgghMSxbRLxOA31aVavWsGHPnALX/zDz3D//f+Lr33tj7nuPZeDgMxk5Qi40i6be5wjQpm3RIUB2fERbrrxOj511yf42J0f4Ip1F9Pa2kxtTQp3OrdpRl8ipcR1XVKpapoaG2ib14LjOLNvclpkcyHd3ccZGo7UXvSMFy3spK4mDqpgYiWqyOIli6iurgYgDBWTE5PseOVVAhXg+T4jwyMMD49EJWtqUtXMa2unNt1IGCq8UHPppRfT3NSEFQWElVZMZXNs2/YqIyOj2I49QzWJKPGvt2+A+37wKP/vf/4qTz39AgODIwSBmkmIqD+SiQTNTY0sW7KIa6/dyJ133srvf/a3+Q93fZyli+aTGc+gKgYKZwvnyFMuzBsnBQtam/jMp/8DN9/0HtraWmYEQHP5PINDwxzt7uXwkW4OH+mi+2gPx/v6GRkdYXJqikKxCAhsx6I8Ohb4fsDru/awddvrZLJZnMi/JYQgCDRNTfUsWbyABR3zS5fgui6vvvoK+w8fpeCBLeDTn/kk89tbcRybXL7A3n0HuPtb3yGerCIINK2t87joouV0zG8DNFJadPcc43D3cU70j6BCxZ0ffD9XblxPfboOEHheQNfRXu65+/uMjk3ixlxDESGmU3ulgCBUjI5NsXf3fiZGxzh+rJ/RsTF830dKC8dxTKbqtKvFSDHLktSkqli0cAELOtqwLDhy+CjFwNiGb9018/ZxjggFfuATT8b4j5/6dT5w+y00NtRHR4x7YHR0nFdffY3nn3+JZ557kaee28zmzVt4eesrvLJjF3v2HeTw4W6OHTtBvlCgpamBWMyojjcjFICwBH6xwJJFnVx88UVR3M34knp6+zjY1Uff4DjNTfV8/rO/NU2EkdExXt76Go//7FniqSShgpraGhYv7mDtmlXTD3RiYoLDR3p4Y9cBnDDgNz/5CVavWk4yygzNZrM8t+lFnnz6RQqeh+Vap1BEJujsOjaOY7Fn935eeGELe/YdZGR8nMmJKSYmJigUioRKIQTYthWFn8qFpdNplixZRCaXYe++/RSLpbDQ2SHVOVJ5IIICzVWa3/rkr0cPzEAD2WyBnz76Mz7/+c/zR1/8U/7hH+/jJ0+8wOaXX2Pzy6/x6JOb+M73f8xf/dU3+ZM//jJ/9qWvcaJ/8C13kuvY7N93iP37j5DLF2ZctnBhJ52t86ixBJevX4Ubc6ZV9Pj4JIe7uhGxJAiJG3MYHhli//4DlcXT1NRES0M9opjDdgKWLVtEqro8aMjlcjz1xDNM+QEm4+3NjGTj2EzVp6lrbuBo3yD/654H+exn/ogP3P4xvvif/pTv3f8wO97Yy9jYFH4khaA0uoWGhnp+7/d+h7oqjQ7ys28wpzgnhPKDkMaWVq697maqkonpQC0I8vki+w4c4C//8suMTPqk57WSrq+hJhEn5saIuXFqknHSNUlq6lMka9PU16awZwd13xTmXv39Axzp6o72GfuitbWFttYUqZqA9esvnWGbjYyMsnv3XhJxk5vkOBaD/b3s270j4oTpzqamRpoaa0kkFctXX0RTQwOuU87OzGQy/Oyxx8ArRvtPlk8nw+RVxV2LdE11FO9sZ/uuI3z9b+7mN37ts3zi136HHz3yU/L5fElYgtBYlqC+tob3vOdmGlva8GclAc4lzgmhAi+kKlnDitUrI5vJdBYIxkbHefGlrQwMB4TKxopylCxpnJPGQSmM70kKQmlRU5M6ZR7Tm8KNcWJ4hEOHjlTsVLS2NNPc3EhVVZxVK1dEMTXjhDzRP8gbuw8Tj8eQQiIQhIFgbKxAV08PoTLtqKtJUVffSCo9j6uvWk9VVXLabpmcnOLgoW4ymcAInzPxaBZKI1XpCCxbIlCEyiPr5dh3cD9/+zd/zT8/+njkaTeST0R21SWXXExNso6gMDOqMJd4m09hbqDCkLjj0tI8Mz4GkM3l6T56DGUlEGKmOjATGI3fCkCHGlsLVixfQtxEZd8E5skZdaCJxV2OHj3G9m07K87RVFdX0dTcQvv8hSxbung673sqk6W/b5CxkRETcywFY4XLVC5k/8FDhKEJ27iuS+u8Zi65ZC1XbLiMmOtON2NkbIydu/ag3SRIaZJT30zjQYUEmynJtADXsnBjLk4iRqA1Bw71ct8DP+bYDIeruaaxqYGY457V0d45IRRKYyFwp9VJuaO0LuUaVfZdZY9Hb50GQkVC2lx15RUVmZtluI4TxfIqdkZluo7F8MAge/fsY2JiYjrX2rYtOuYvYP36y2ltbYkS7gSjo2MmzBKWpGlUnGWTKxbZu2+/IVREtLbWZn7l6g2sWLFiOocKYHBgiBdf3o4diyNKc6BmQSlFqMLpnPiTUZlvaWwloUFaDlasjtd27GF8fHLGFURTtX45c8qFIAhDioXIQKxIvYjFXJoa6xGBFzXedJ7ApNAKbSRTEITE4w7Lls1n48YNVFeVMxtBIKUgnU7hSGFmSFYQ0aRga0AxMTXJvkNHZgRYly5ZxI03XEsiHkNEmZXDw8P09w8jrPiMVBDbscjls+x8bTdhUA4sNzU1su7StczvaMWyTSpKEPj0Hj/Bli2vkHAr3RxM109rE34xIzZNEHomn0uX2mA20xemDUbuCrTSoANaW5uIJ06W2KNjoxQ977REngucvZLfDFJQ9D1GRsZmH6GurpZL163B1iOgPUCisdDIqLqSzFSRsaExLrloBX/7ja9RW5NCCiNJSrAsi47OBcQTOspPKiHKHdICbJfJbMDePQdmZDK0z29n3bpLK66Bru4eDnUdIV5dck0Y2LZkaiLD5udfMRkPEVFbWpq57LJLqa9NYQlT74GhEbqOdFOYHMOyTj1/LwwVixe0s+GSVcxvqWNsoI/xsSy+F6J02ZtuppmbNmsh0RqCQg4ve4Lf/Pf/hoUL5lf0h3kBDh08Qt7PYcfLA4S5xjnxQ0kpCZSH0iF3fvC2GarNcWzSdWlSqVr27Xmdgb4TFLJFCtkMhewIhewE11y9gU//7if55Cf/HUsWd5pJnTOejpFQdbW1PLNpC30Dw2htDNrScaKUYq0DwsDjtl99L7btQOT/caZn8BqR9uPHnubRJ5/HEqbscqXNJFChQq6/6Vrq03W4jotlWbiua86N7rt3336eenoTr+/pIpGIn0QopRRTo2Pcdde/5a7f+Di333YLV19zFQvaW8kX8owMHmVydIhCNh9tOQrZLIXsGGFYZOHixfz+5z7Dhz54O81NjdPqWilNZirPV7/6FXqP9WHb7llzbp6TiZ4aCPwCC+c38r3vfYf5rfOMnRGJ/SAI6e09wfbt2znS1UsmU8CyLFKpGPXpNIsWL2TJksW0tDRhSYvxiUnCMCSVqiYRj1eoBsl3vvcg99zzILt37SNeXUpiMwttaK3RgUd7cw0/+MEDzJvXHBnhpS4xhBqfmORLX/7v3H3vg6RSqUgNlh+IV/CxlOSvvv7HvO+9N9BQX3bSluoB8N37HuLvvnkPhw4dI56YKemIpuOPDwzw1a/+BR/+yO00NdQzOTVFf/8gx0/0M9B/gvHxCTKZIrlcOes0kXBI19exoLOTtRetoq2tBdsqS6Hx8Qke+enP+dJf/hWTk1libnxG/ecS50RCCSAMfXzfQ9o2K5Yto7qqKnprTLJaOl3HsuXLWLVqBWvWrGT9+ku44ooNbNy4gcWLOqmtMfG1/sER/un+hzja00tDOk19fXqG9HAcm9d37Gbf/oPEEiVCGWehEIKg6OMXPa65ZiPNzU0V3vZSTQVHunt46skX2L/3ELFkibDlB6IUICw6OppZe9FqamtPznzIZHM89tgTPPX0c9hO7NQSQmsK2TzXXX81q1Ysoz5dSzIRp7mpiSWLF7J61SouWnMRa9asZO3aVaxbt5Z169Zy+eWXcfmGy1izeiW1tTUzJOj4+AQvvbydv//7u+kbngQhIxV8dnD2Sj4DbDtGzoN7v/sAzz7/Iv0DQ1GWY7kzXMemuamBRQs7WNDRTkN9eno2STaX58Chbv75kZ/zP79xN9++5/vs3LnLJKVpE9udmJjkRP8A+UIO2y7ZWNok9WMMfKSDHzps2bKNzPTMYmYQ5siRboZGxhG2G40fZpLBsiXShZdf2cHE5FTFkXJbjh/vo7e3j2wmN73AxWwIwIklONLdE809zM+4l+PYJvjc0syihQumt9Z5LVRXV80oKVSKoaERNr34Mvc98DDbtr0KgY9zupvPEc6JhAJtJhsKyOc93ti1m/r6OlpamnFsJ5o3Z6Lu5mzQSqGUxvN8stkce/Yd5N5/epC//K9/C9Li+NFj1NRW09beSl26lkw2x9atr/Df/sffsXP3fhw3ZsoSJhvTFC1AgrYUoyPDXHnl5dTW1hIEIb4f4PsBhWKRH/7wEba/upNcFAebLVuEMKsxHTzaxy03v4d5zU2ESuEHpgzP83nuhZd45vmX6RsYxY1VZhdUlgOxRJz9hw4jtKa5qZFkMomqHKVGzt3Z0Gi0UvhBSL5QYHh4hJ898Qx33/NdnvjZz6lrao0iEmcX58SGKnWOFqC1IPBDLDXFVRvX8dGPfZwrr7yCdF0dVckElmXh+wHZXI7xiUne2PkGP3nsCV7e8gr9/SMI18W2bbQOCYsev3L1Bm5473Uc7erh4QceJB9YSDsyjivuXflAw1CRyea59X3XsX79GtLpepRSSCnoOzHADx76KX0DwzjJWJQNMFPlgfGfFb0iG9dfzMaN62mPFtTQaHJTGe6/7ycc6urFidsn2WCVKI3iVLFIPOaweMVi7rjlZtZevIbOhZ00NTRQlYifdLnvB4xPTNLV08PmTS/yg4ce4FDPIMpK4kqQwp7h7jhbOKeEMr0iCbVC+QXisTh1tWnqUlW4ToLa+mps16ZY9JmayuDnp5iaCpnKTZHLm2xEyzY5U1ooQt8nHouTrEpRCHyyEyNIOXs28GxiGd+PH4SkqpPEYjHjgoieeUEF5Cam0EphRUsEaaFPOW1JKYUbs4nHEziWC9rQL7Q0U6MThEE4HS453epypQXSQj9AK40Ti5GqqyVlSxJxh6qaamrr0qRrq5G2kXSZbI7x0TEmxybJ5fOMFXymxkYJwhBpOdiyFHGoJPLZeezniFCVKDfQ90MCLwAVABaxpIuQgiAIjY8n9AAXJ+5E6yJVXm/ePj8wWZLCksRc6xRz+E/foUGoCIMQFVYcswWubb/lqUihUoR+WGEPVpZh7L9TSbhTwcz2UXiBAr8IOkTaNk48QVXcNdPIgELRo5AvEHpeFI+J4ToOliyHqUAjtIzuq6P+Em/aH/8SnAeEqsTJjSuFCk5lN5yM2Q9q9u93Aie34WT8y+ul9amXHUJg7FJtcrtMzLKEqA9LBNJmn5G0lXbVqQp+ezj7Vtrbgj6pUaczQk+N2efN/v1O4OQ2nIx/eb1E5Fg9aRMCoUsrAiuUDNFCRcFnC6GlMdyn61ZJ/LdS57eG84xQF/CLQSC0RCgLK7SQuqzypLIQyopsP0MgoSMH75nTHd4yzjOVdwFvHyalx1OKbKAhNB5yERbROsS2wLEEBR2iQwmWBZbEFZLq6cHK3I3+3jFCmbegpONLotcISBM1fyu2xwWUoDRkfbMicrXrMT8Ny5oc2moETVUWNgGurYk7ZtlrTwsKBRgpaIazIYeGArb3apJOHDmHff6OECpE46NZVGORLSjGi5pAC9zI6y20jrIJuECoM8BXGl8pHKFZ2GixotlmUV3AwjrFgjpJc7WiLmFhobAtiWMZFacRFAPNpC8Yz2sOj8KThy2e2OMRamvObJ93hFC+1hTR/O7lDr6n2D8EB8Y04xmzaJdjRaO4s16Tdze0BqVDahJwUYvFTSsUV3XYLExDlaOMr4woJ0srlDbT76UQoHyTM2U7ICV532H3YJKP3zuMr2xsUXJp/GJ4R0IvSoNlCf7iNoePXhJjZbOFFyiOjHr4ygatUZFheLLf6AJKCJVmXlXIbasc/uj99Vzb6VHrBKhQUQwFHhZ5ZVNQNgVf4/kKXzuEMoHUPkpYaKXRoQIFOU/x7dcDUBbWWx5JvzneEUKFCApaEfgBKxptLmrRbFwI1y2L40rNnp4sY3kJ0sKxL1DqdMiGcOkChw+sdWmrCRmaDDk2AXuGbV7pd3j5qGBTl2Z7r8W2Y5LX+uHIuCYXQH08RtzysUWIRGFZkiIx/vfWKVD2nGUgnH2VJ7RZ5kELXF3kpmVxPrbO4soFCkv7jHgOB4ZMRzy5y2PX8QCZTJJyS3lppeoZmlV6fkvHzK5fThvMWECmbaFWxBxBjROSwEM5LqG28JTAD6PVa6Y94BqBwBZQF9dc0uDxf/9qkvlVAVKF+Nrm0GSMW/5hHEE8+qzIL95374iEEgIkkmIAI9mQ4xMBXqhY1GDTmvRprpZ01guWNkk6GiwSbshk3idTNANaWco8ESblxCyKXPL7mn9LnfjLBvMamX+l0HgBTORhPAdjRZvJvCRThFxRkfEUY0XNVDbA9wV+ICn4gvFcSPfxArevjdOYBEsYFXlg3OFHr5u5XNEnZ35hvAOEKj16iWVL8oHmxKSibwK8UNJUrUg5mpZqzeIGwfJmQVt1SF1SUpsU2BIKniLrKUJtlvcrd7Jx5Jk/K2Jnv0SY3SIpTB677QhsKVHmWw8kHMX8Grio3eayVkFd0jKZHNGXs0amfO7amGBeSmOJkIyn2dlv8bN9xsv+LiIUZtgaGX1SSrS26J+AHX0hbsylNmZGKQkRkHYDFjfYbFjgsKoF6lzzrRYtQNgWfqAJlHFF6IpPgmlxdheBODeIXhqUIZaIPvKmNaHWhGiSMU1DUrOqUXDDEouPrBXcscYilbQ5NqE4Ma5AShLxgE9dVUVzlUIQMpwVPHdIsOWYWRTkXWWUU3rTokoLYWa9eqHFE/sD8oFFbZVDOimISYUQgoT0aEsGXNYO1y93ubwzTlNS0DXsMVXU+FqgpEJapblwJpI+N91y/kCjUVKjtQQt8bXGCzVCKaRV4I7VDr9xmeSuy20+sNpiSSpLOhZgOQ47+xQ7Tni4Dlzb7nHrRQnSsQAkdE263PcqdGcCHMGcSaizb5RjcnyMN9xkAZWdmMZX4iuYl/K4Y43DJzbEWFbnE3pB1J0iWi4RwjAko1LsH5PsOO6zrcvntZ6Q43kXbQUkBcSkQFgyut+7G1pr/FAzhYbAJi58Vs3TXL3YYv0Ch8tbHWqsLI7UOBbELIXSmpGwmn/c4vHTvZrDI4KEq/jkuoDfvULQnNRkdIzHDjl89qEisRhY2qz+Mhc26DtCqDPBUwKLgIYqwdo2iztWC65fKKhxi9NpwBKFQoJ0yHowXtCM5QSDWYc9Y4IjwwE9Iz6HhwKOT5jzEIqENLEsow5Lqjcit2ZarUCUHoxZltAc0ahoOH1y/LS8w5xe/l0ut/T/SRfP+NJo6RytNVkflJKgAmqcgEX1guXz4yyq0bTVQWca2mo1ta4mHZPYumgUorTIBYJXTsD3d0q2HQ8YzwiKnqC+SvO3dzqsb/FIOQFHxm3uf8Pha88F1MfsqKqmT35RnBeEgihrUiniLixrElzaDO9fobm4zSadAKF9dBgSTq8VCUI6KBmnP1NkeCJkICvonYDuMc1gXjKagYHxgP4pxVQxWrS1wt3iCElMltdLMJnhUdnRXyVpeipClc4vkyMiYsW5lQSOLiNUUFRETDTHYzJkXlVIfY1LU0rSUq2ZXw2dddBaC/NqmbY1HamIllFAoihoh64xyQtdAU8fVLzeb5PxjTaIS8XKBs09/z5FtZVD2oInDkq+uQW290DMAqT5RNxc4LwhFJi+9bWmGGpcHfLelTbXLbZY1y5ZVK+osz3CMJp2jYi+/CRRYdHMJBExCkoyUVScmFL0jwu6RhSHxjQDU5DzBOO+JO9p8kWNCsynVSeLykThtVlVzyDqlukpSRqpDR8DzXRe+HRcW0fnlnpzulejg0GAa0MiJojZYDtmBeOkA1WOJp1QLK5TLG4QtNfB/AabpiqbhFCosIhtC/O5NmVar5B4oc2xyZA9wxabj8ILhwMOD2qScRcpzOClsUpzyzLFVz6QRHl5+j2Hu7dL7n4pRISgpGGmYG5CX+cXoaL3XkQTMTMFRWO1z7VLHO5YE2ddq0+t5eHa5ntKghCr9FFBxzUfUQzNQNoiNBab4xJIm6k89I0rDo9J+iYUQ1MhI1MhvaMhh0c0yomBCgmkJNSSMIBAgbYh1KC0xtGaGIJMCCbZqCRlDG+krbGkwEZgYXxvZqYxWPk8DUlobbSZl9Z01rm01gmak4p5KUFTShKLCWJ+1qxbYNsoJGFQbo8QEGiLYijIeZru0RhPHPb48e6Q/cMC27VIWZYZEUfqc2WL5PPXWnx4TUDo+Tx60OHubbD5SEhV3GR3CjV3TuHziFBmNKME2FFOD1HifyGAmCu5aRF87IoYV7RL6p08giLadgmKZr0jCxNWKMHHrO4ye78GozqtOJ6OMVzUTOXM8ZGCYiirGctKRjOaXFGQCTSZgpkOdToIATVV0JCM0ZDQ1CU0qbigzlXUVrnUJSEdl1Q5gDRrLYhigVALYxvOQinIq5DYBATYSMcmH1p0jUmeOqj5+lNZxr0YSRdidjlhziTWCbKe5KYVkr+5w6LeyjEaJvmDH+V46kBIMmZWhBGq8tt+vzgVziNCGZT8VQiFUEbdKG0WUUpaYDtwebvFNYvg8oWwvMUiVjQTNBVyxmyS8uy7k5uoEchofl6gNEoZkgVaoLRCh4pQmcB2aDum7DOMHC0JthBY0gzDLaGQgYeUxkErhDR23LQ9dfrZL5YtzUAkCAmRTIQJXjsuePJgkRe7PQamXDxfEEbzFy2M7WbKEyilaE0JPnKJ5A+ul1ja5r8+nuOB3Yr+nCTpiEjIWtOpwnOB845Q0zaHKK27Y2AmMho1lE5AOqlor4HVzTYbOgTLm2FeSpN0tbGFAn+GAX8qGEus3PySpJi9H2lN+9DeFrSe8e2YEnkkihALacXQKgTtz5CgAMKOM+XbHBkN2HnCY1OXpHvUYjCrGc8pglDi2qWPPM7sKxDkvJAbl1t8aqPF+lbJw68H3LMtS8+kDdg40+0pGYBzg/OQUGeG1ho/UAihaayyWNxi0VkdsGoerJonWZgWNLkKx8U8UF025IkeKNEDrtxX+ftsoERUMzoUSMtFqxAhFEJIlLaZ9CyOjQccHNUcHJEcGRd0DebZ0y8ohhaOJXGnvZCnf3TZQshNK23ev8pG+fCtrR49E2Z6mjNHmQWnwruSUCVoYYLH2UBBzqOjQXBxh80lbTZLawVt9YrGREitq0k40RI9hEgikmkjlUpGb4A9x4QSCGkZ0qAMkYVACwsL8EJN1tdkfItJ32ZwStI7FWdXX5GtPXkODimKgUNM+Di2/bZCS54fsqDRojklGclodg9qUo6MPOJzYy+dCu9SQhk7gWjKUGk2R6hCCkqRDxUuPpfNl1y1OMHaVpul9ZK2GnCtokmLVSG2DnGkmvYUBDPmqJVV1L8UQtpYdgLfyyG0T6AEARZaWniBS39ec3g44MAg7Dqh2dKdYXBSEloOVa5F3DYOAqErVfdbJ0NOKfJKYwmojmms0Jkx6+Vs4F1JKC3KNpbQFlpoQhkidWRLaLOoqtAhRS3RSJKOpi2luKxNcWm7xYI6aEtbzKtxqItFtpM/Cbq8Qq42jolTEssmiGRO2e6yMI5Xo84k0rbROs54wWO8AP1Tiu5Rzf4+xRs9eXaNwJTvEiKRAhKWWYlOYwLdJjKpESiU1NPtemtkiOboRRkZAo2OXB2nmkY/V3hXEspAR5Iq+lVKIa405HXJhwRSYkZaUpFyJQlH4IY+CRmSrrNZ3CiiBH+buoSkOgYJO6TagSpXYM+ail4y2rWQ+EqQKwZkfMgFFqNZGMmEjGYVw5OKA4MBORJ4SPK+Iu8rtKfIh0YBE33Lzz57z/kdw7uYUG8fKrJbKA2vgxCpFW7cojEFMSvEsWxijiRmgWNDTELMNg/8lBAQKoEXKIoKfCXIepqipwh9Rc7TDE8plLSjTEHjZXeErlgR5pcH/6oIVYaORtlRgl4k4Xw/JNAmB97YzyJKi5kpDU0Js/eAxqw9hQBHgDv9WftoP+Xv6s3l5MrzCf8qCTVj0mklLUQ5OGx+lmhT+r90riFk2Rlozjm9aVIijynDXPfL2e1nzyFxHsMY7GVyEJFMaDW9Fro5XvZq6+kvOKjpTQuzmd/mWLmM0la6l4k+Vt7zlxH/KglloCs2Q4LyaK60v4zyQvNMS7eZxCyRcLaYKuVYlUn2y4x/xYQ6E04m1QWcGRcI9aa4QKi3iwuEuoA5xf8PRxF3Uy/j+JwAAAAASUVORK5CYII=;" vertex="1" parent="1">
          <mxGeometry x="146" y="641" width="144.39" height="80" as="geometry" />
        </mxCell>
        <mxCell id="0PEOZsDTC55XXhyj8gNq-32" value="S3" style="outlineConnect=0;dashed=0;verticalLabelPosition=bottom;verticalAlign=top;align=center;html=1;shape=mxgraph.aws3.s3;fillColor=#E05243;gradientColor=none;" vertex="1" parent="1">
          <mxGeometry x="542" y="875" width="48.5" height="56" as="geometry" />
        </mxCell>
        <mxCell id="0PEOZsDTC55XXhyj8gNq-36" value="" style="edgeStyle=none;curved=1;rounded=0;orthogonalLoop=1;jettySize=auto;html=1;fontSize=12;startSize=8;endSize=8;dashed=1;flowAnimation=1;" edge="1" parent="1" source="0PEOZsDTC55XXhyj8gNq-33" target="0PEOZsDTC55XXhyj8gNq-35">
          <mxGeometry relative="1" as="geometry" />
        </mxCell>
        <mxCell id="0PEOZsDTC55XXhyj8gNq-33" value="Lambda" style="outlineConnect=0;dashed=0;verticalLabelPosition=bottom;verticalAlign=top;align=center;html=1;shape=mxgraph.aws3.lambda;fillColor=#F58534;gradientColor=none;" vertex="1" parent="1">
          <mxGeometry x="426" y="872" width="42.5" height="62.5" as="geometry" />
        </mxCell>
        <mxCell id="0PEOZsDTC55XXhyj8gNq-35" value="Dynamo" style="outlineConnect=0;dashed=0;verticalLabelPosition=bottom;verticalAlign=top;align=center;html=1;shape=mxgraph.aws3.dynamo_db;fillColor=#2E73B8;gradientColor=none;" vertex="1" parent="1">
          <mxGeometry x="332" y="877.13" width="44.5" height="52.25" as="geometry" />
        </mxCell>
      </root>
    </mxGraphModel>
  </diagram>
</mxfile>
